<svg width="574" height="70" viewBox="0 0 574 70" fill="none" xmlns="http://www.w3.org/2000/svg">
<path d="M25.492 10.7168L45.4826 54.2946H39.2229L33.1847 41.0045H12.5501L6.51183 54.2946H0.260254L20.2468 10.7168H25.492ZM30.7251 35.5955L22.8714 18.3409L15.0056 35.5955H30.7251Z" fill="#1D3E6F"/>
<path d="M55.3241 53.5841C53.3069 52.7514 51.5022 51.479 50.0427 49.8603C48.5342 48.2126 47.3928 46.2653 46.6935 44.1463C45.8976 41.7666 45.5058 39.2712 45.5341 36.7629V33.4886C45.5341 28.573 45.667 25.6197 46.3111 22.6543C46.8787 20.026 47.563 17.9314 49.0444 15.8769C50.4091 13.9805 52.2162 12.4436 54.3097 11.3987C59.1403 8.83865 66.5472 8.45343 70.4841 8.1886L75.2704 8V13.3048H74.5458C69.7958 13.3048 57.6388 13.7301 54.0682 18.0558C53.0909 19.1547 52.39 20.4696 52.0232 21.8919C51.5157 23.8151 51.2187 25.7875 51.1376 27.7745C52.4967 25.8595 54.3727 24.368 56.5479 23.4729C58.59 22.6293 60.7782 22.193 62.9887 22.1889C65.3064 22.1621 67.6059 22.5987 69.7515 23.4729C71.661 24.2472 73.3761 25.4308 74.7753 26.9399C76.1487 28.4217 77.2399 30.1404 77.9957 32.0119C78.7178 33.9649 79.0885 36.0297 79.0906 38.1112C79.1196 40.3516 78.7093 42.5762 77.883 44.6599C77.0942 46.6509 75.9113 48.4632 74.4049 49.9887C72.8995 51.5562 71.0774 52.7871 69.0591 53.6002C64.6639 55.3978 59.7354 55.3978 55.3402 53.6002L55.3241 53.5841ZM66.7243 48.8973C68.0571 48.3579 69.2633 47.5491 70.2667 46.5218C71.2732 45.4411 72.0605 44.1766 72.5854 42.798C73.1764 41.3069 73.4664 39.7142 73.4388 38.1112C73.464 36.5984 73.1791 35.0964 72.6015 33.6972C72.0815 32.4074 71.316 31.2301 70.3473 30.2303C69.3205 29.2636 68.1182 28.501 66.8048 27.9832C65.3883 27.4593 63.8876 27.1982 62.3768 27.2127C60.8115 27.1798 59.2558 27.4637 57.8038 28.0474C56.4872 28.5878 55.2851 29.3721 54.2614 30.3587C53.2715 31.3417 52.5031 32.5235 52.0071 33.8257C51.4336 35.1867 51.1485 36.6512 51.1698 38.1272C51.1315 39.7295 51.4105 41.3235 51.991 42.8181C52.4528 44.1945 53.211 45.4535 54.2123 46.5071C55.2136 47.5607 56.4339 48.3833 57.7877 48.9174C59.187 49.5143 60.6938 49.8202 62.2158 49.8162C63.7708 49.8181 65.3101 49.5055 66.7404 48.8973H66.7243Z" fill="#1D3E6F"/>
<path d="M92.2904 53.5839C90.2914 52.7698 88.4906 51.5384 87.009 49.9725C85.5177 48.4594 84.3363 46.6712 83.531 44.7078C81.8132 40.5544 81.8132 35.8923 83.531 31.7388C84.3511 29.7641 85.5302 27.9575 87.009 26.41C88.5251 24.8848 90.3171 23.6595 92.2904 22.7986C94.4395 21.9362 96.7367 21.5001 99.0532 21.5145C100.999 21.5155 102.933 21.8188 104.786 22.4133C106.49 22.9787 108.098 23.8015 109.552 24.8531C110.966 25.9017 112.191 27.1827 113.175 28.641C114.142 30.1199 114.86 31.7464 115.3 33.4562H109.358C108.658 31.4266 107.327 29.6724 105.558 28.4484C103.63 27.1841 101.361 26.5347 99.0532 26.5865C97.4836 26.5741 95.9277 26.8799 94.4803 27.4854C93.1441 28.0478 91.9383 28.8782 90.9379 29.9251C89.9567 31.0129 89.1917 32.2765 88.6836 33.6489C87.5671 36.5859 87.5671 39.8286 88.6836 42.7657C89.1772 44.1258 89.9443 45.3711 90.9379 46.4252C91.9178 47.5114 93.1278 48.3667 94.4803 48.9292C95.9277 49.5346 97.4836 49.8404 99.0532 49.828C101.372 49.8894 103.65 49.215 105.558 47.9019C107.338 46.7171 108.674 44.9789 109.358 42.9583H115.304C114.864 44.6681 114.146 46.2947 113.179 47.7735C112.211 49.2264 110.983 50.4888 109.556 51.4973C108.122 52.6121 106.509 53.4763 104.786 54.0534C102.933 54.6479 100.999 54.9512 99.0532 54.9522C96.728 54.9707 94.4244 54.5047 92.2904 53.5839Z" fill="#1D3E6F"/>
<path d="M128 53.5841C126 52.7871 124.185 51.5896 122.667 50.0657C121.15 48.5418 119.962 46.7238 119.176 44.7241C118.318 42.6698 117.88 40.4651 117.888 38.2396C117.886 35.994 118.324 33.7695 119.176 31.6909C119.982 29.7275 121.163 27.9394 122.654 26.4263C124.194 24.8999 126.008 23.675 128 22.8149C132.323 21.1027 137.139 21.1027 141.462 22.8149C143.454 23.675 145.268 24.8999 146.807 26.4263C148.318 27.9364 149.521 29.7243 150.35 31.6909C151.176 33.7747 151.586 35.9992 151.557 38.2396C151.593 40.4598 151.182 42.6645 150.35 44.7241C149.54 46.7181 148.336 48.5298 146.811 50.0517C145.286 51.5736 143.469 52.7748 141.47 53.5841C139.338 54.4741 137.05 54.9324 134.739 54.9324C132.428 54.9324 130.14 54.4741 128.008 53.5841H128ZM139.336 48.8973C140.689 48.3348 141.899 47.4795 142.879 46.3934C143.85 45.3227 144.614 44.0819 145.133 42.7338C145.66 41.2945 145.922 39.7719 145.906 38.2396C145.917 36.7078 145.655 35.1862 145.133 33.7454C144.6 32.3852 143.837 31.1258 142.879 30.0216C141.878 28.9748 140.672 28.1443 139.336 27.5819C136.41 26.382 133.128 26.3777 130.198 27.5699C128.862 28.1323 127.656 28.9627 126.656 30.0096C124.661 32.2854 123.563 35.2055 123.564 38.2276C123.537 39.7666 123.822 41.2952 124.402 42.7218C124.895 44.0819 125.662 45.3272 126.656 46.3814C127.636 47.4675 128.846 48.3228 130.198 48.8853C133.128 50.0835 136.414 50.0835 139.344 48.8853L139.336 48.8973Z" fill="#1D3E6F"/>
<path d="M153.486 54.6756C153.053 54.6747 152.622 54.6317 152.198 54.5472V49.6036C152.537 49.6779 152.882 49.7209 153.228 49.732H154.259C154.815 49.7541 155.368 49.6433 155.872 49.4087C156.376 49.1742 156.817 48.8227 157.157 48.3837C157.866 47.5491 158.188 45.8798 158.188 43.4401V22.1729H183.049V54.2743H177.51V27.2609H163.727V44.5957C163.727 47.9985 162.889 50.5666 161.279 52.2198C160.475 53.0359 159.511 53.6791 158.448 54.1098C157.384 54.5404 156.244 54.7494 155.096 54.7238C154.559 54.7411 154.021 54.725 153.486 54.6756Z" fill="#1D3E6F"/>
<path d="M212.189 53.8409C210.377 53.1699 208.729 52.119 207.359 50.7592C205.921 49.4621 204.76 47.8901 203.945 46.1366C203.029 44.346 202.44 42.407 202.206 40.4105H196.023V54.2783H190.484V22.1768H196.023V35.4669H202.254C202.551 33.5207 203.16 31.6347 204.058 29.8812C204.944 28.2457 206.104 26.7733 207.488 25.5274C208.898 24.2505 210.537 23.2487 212.318 22.5741C214.189 21.866 216.178 21.5187 218.179 21.5509C220.414 21.5363 222.628 21.9731 224.688 22.8349C226.622 23.6627 228.373 24.8626 229.841 26.3661C231.259 27.9356 232.392 29.7387 233.19 31.695C233.97 33.7901 234.363 36.0088 234.35 38.2436C234.369 40.458 233.976 42.6568 233.19 44.7281C232.421 46.6942 231.284 48.497 229.841 50.0409C228.395 51.5897 226.64 52.8199 224.688 53.6524C222.628 54.5141 220.414 54.951 218.179 54.9364C216.132 54.9389 214.102 54.5676 212.189 53.8409ZM222.434 48.8371C223.701 48.2543 224.839 47.4248 225.779 46.3974C226.713 45.3213 227.435 44.0799 227.909 42.7378C228.436 41.2985 228.698 39.7759 228.682 38.2436C228.693 36.6909 228.431 35.1482 227.909 33.6852C227.422 32.364 226.701 31.1407 225.779 30.0738C224.839 29.0464 223.701 28.2169 222.434 27.6341C221.094 27.0521 219.65 26.7463 218.188 26.7353C216.726 26.7243 215.277 27.0082 213.928 27.5699C212.669 28.1368 211.549 28.9692 210.644 30.0096C209.713 31.0869 208.992 32.328 208.518 33.6692C207.996 35.1322 207.734 36.6748 207.745 38.2276C207.729 39.7599 207.991 41.2825 208.518 42.7218C208.992 44.063 209.713 45.3041 210.644 46.3814C211.547 47.4276 212.668 48.2656 213.928 48.8371C215.267 49.4306 216.716 49.7373 218.181 49.7373C219.646 49.7373 221.095 49.4306 222.434 48.8371Z" fill="#1D3E6F"/>
<path d="M235.098 27.261V22.189H263.985V27.261H252.086V54.2905H246.535V27.261H235.098Z" fill="#1D3E6F"/>
<path d="M321.767 35.1938V40.7193H265.893V35.1938H321.767Z" fill="#1D3E6F"/>
<path d="M335.8 16.3626V54.2906H330.003V10.7168H365.54V54.2946H359.679V16.3626H335.8Z" fill="#1D3E6F"/>
<path d="M381.2 53.5841C379.199 52.7871 377.384 51.5896 375.866 50.0657C374.349 48.5418 373.161 46.7238 372.376 44.7241C371.517 42.6698 371.079 40.4651 371.088 38.2396C371.085 35.994 371.523 33.7695 372.376 31.6909C373.181 29.7275 374.362 27.9394 375.854 26.4263C377.393 24.8999 379.207 23.675 381.2 22.8149C385.522 21.1027 390.338 21.1027 394.661 22.8149C396.653 23.675 398.467 24.8999 400.007 26.4263C401.518 27.9364 402.721 29.7243 403.549 31.6909C404.375 33.7747 404.786 35.9992 404.757 38.2396C404.792 40.4598 404.381 42.6645 403.549 44.7241C402.739 46.7178 401.537 48.5292 400.012 50.051C398.487 51.5729 396.672 52.7744 394.673 53.5841C392.541 54.4741 390.253 54.9324 387.942 54.9324C385.631 54.9324 383.343 54.4741 381.212 53.5841H381.2ZM392.535 48.8973C393.888 48.3348 395.098 47.4795 396.078 46.3934C397.049 45.3227 397.814 44.0819 398.332 42.7338C398.859 41.2945 399.121 39.7719 399.105 38.2396C399.116 36.7078 398.854 35.1862 398.332 33.7454C397.799 32.3852 397.036 31.1258 396.078 30.0216C395.077 28.9748 393.871 28.1443 392.535 27.5819C389.605 26.3837 386.319 26.3837 383.389 27.5819C382.053 28.1443 380.847 28.9748 379.847 30.0216C377.852 32.2974 376.754 35.2175 376.755 38.2396C376.728 39.7786 377.013 41.3072 377.593 42.7338C378.086 44.094 378.853 45.3393 379.847 46.3934C380.827 47.4795 382.037 48.3348 383.389 48.8973C386.319 50.0956 389.605 50.0956 392.535 48.8973Z" fill="#1D3E6F"/>
<path d="M429.469 46.7225L442.226 22.189H448.928V54.2905H443.381V30.9888L431.418 53.9012H427.505L415.557 31.0289V54.3025H410.018V22.201H416.708L429.469 46.7225Z" fill="#1D3E6F"/>
<path d="M464.314 53.5841C462.314 52.7871 460.498 51.5896 458.981 50.0657C457.463 48.5418 456.275 46.7238 455.49 44.7241C454.631 42.6698 454.193 40.4651 454.202 38.2396C454.2 35.994 454.637 33.7695 455.49 31.6909C456.295 29.7275 457.477 27.9394 458.968 26.4263C460.508 24.8999 462.321 23.675 464.314 22.8149C468.637 21.1027 473.452 21.1027 477.775 22.8149C479.768 23.675 481.581 24.8999 483.121 26.4263C484.632 27.9364 485.835 29.7243 486.663 31.6909C487.49 33.7747 487.9 35.9992 487.871 38.2396C487.906 40.4598 487.495 42.6645 486.663 44.7241C485.852 46.7189 484.648 48.531 483.121 50.0529C481.594 51.5749 479.776 52.7757 477.775 53.5841C475.643 54.4741 473.355 54.9324 471.044 54.9324C468.733 54.9324 466.445 54.4741 464.314 53.5841ZM475.65 48.8973C477.002 48.3348 478.212 47.4795 479.192 46.3934C480.164 45.3227 480.928 44.0819 481.446 42.7338C481.974 41.2945 482.236 39.7719 482.219 38.2396C482.23 36.7078 481.968 35.1862 481.446 33.7454C480.913 32.3852 480.151 31.1258 479.192 30.0216C478.192 28.9748 476.986 28.1443 475.65 27.5819C472.719 26.3837 469.434 26.3837 466.504 27.5819C465.167 28.1443 463.962 28.9748 462.961 30.0216C460.966 32.2974 459.868 35.2175 459.87 38.2396C459.842 39.7786 460.127 41.3072 460.707 42.7338C461.201 44.094 461.968 45.3393 462.961 46.3934C463.941 47.4795 465.151 48.3348 466.504 48.8973C469.434 50.0956 472.719 50.0956 475.65 48.8973Z" fill="#1D3E6F"/>
<path d="M535.404 62.38V54.2905H493.007V22.189H498.53V49.2385H511.347V22.189H516.886V49.2385H529.704V22.189H535.243V49.2385H540.605V62.4001L535.404 62.38Z" fill="#1D3E6F"/>
<path d="M550.741 22.189V33.7455H561.433C563.255 33.7128 565.068 34.0176 566.778 34.6443C568.15 35.1524 569.4 35.9395 570.45 36.9557C571.39 37.8789 572.116 38.9966 572.575 40.23C573.007 41.4241 573.225 42.6845 573.219 43.9538C573.231 45.2235 573.012 46.4849 572.575 47.6775C572.117 48.9304 571.392 50.0694 570.45 51.0161C569.38 52.0534 568.109 52.8617 566.714 53.3916C565.003 54.0183 563.19 54.3231 561.368 54.2905H545.202V22.189H550.741ZM561.175 49.2826C563.236 49.2826 564.846 48.8332 566.005 47.8702C566.559 47.3826 566.997 46.778 567.287 46.1005C567.576 45.423 567.711 44.6896 567.68 43.9538C567.68 42.2845 567.1 41.0004 566.005 40.1016C564.911 39.2027 563.3 38.7533 561.239 38.7533H550.741V49.2826H561.175Z" fill="#1D3E6F"/>
</svg>
