<svg width="500" height="70" viewBox="0 0 500 70" fill="none" xmlns="http://www.w3.org/2000/svg">
<path d="M22.0186 2.40829L39.4635 41.0401H34.001L28.7317 29.2584H10.7248L5.45547 41.0401H0L17.4414 2.40829H22.0186ZM26.5854 24.4633L19.7317 9.16708L12.8676 24.4633H26.5854Z" fill="#1D3E6F"/>
<path d="M48.0466 40.4104C46.2862 39.6722 44.7114 38.5442 43.4377 37.1093C42.1213 35.6486 41.1252 33.9222 40.515 32.0437C39.8205 29.9341 39.4786 27.722 39.5033 25.4984V22.5957C39.5033 18.238 39.6192 15.6199 40.1813 12.9911C40.6766 10.6611 41.2738 8.80419 42.5665 6.98288C43.7574 5.30174 45.3344 3.93927 47.1614 3.01299C51.3768 0.743466 57.8405 0.40197 61.276 0.167191L65.4528 0V4.70269H64.8205C60.6753 4.70269 50.0665 5.07976 46.9506 8.91448C46.0978 9.88867 45.4861 11.0543 45.166 12.3152C44.7231 14.0201 44.464 15.7687 44.3932 17.5301C45.5792 15.8325 47.2163 14.5102 49.1145 13.7168C50.8965 12.9689 52.8061 12.5822 54.7351 12.5784C56.7576 12.5547 58.7644 12.9418 60.6367 13.7168C62.303 14.4031 63.7998 15.4524 65.0207 16.7902C66.2192 18.1039 67.1715 19.6275 67.831 21.2866C68.4612 23.018 68.7847 24.8484 68.7865 26.6936C68.8118 28.6798 68.4538 30.6518 67.7327 32.4991C67.0443 34.2641 66.0121 35.8707 64.6976 37.2231C63.3838 38.6126 61.7938 39.7038 60.0325 40.4246C56.197 42.0182 51.8961 42.0182 48.0606 40.4246L48.0466 40.4104ZM57.995 36.2555C59.1581 35.7774 60.2106 35.0603 61.0863 34.1496C61.9646 33.1916 62.6517 32.0706 63.1097 30.8485C63.6255 29.5266 63.8785 28.1147 63.8545 26.6936C63.8764 25.3525 63.6278 24.021 63.1238 22.7807C62.67 21.6372 62.002 20.5936 61.1566 19.7072C60.2606 18.8502 59.2114 18.1741 58.0653 17.7151C56.8291 17.2507 55.5195 17.0192 54.2011 17.0321C52.8352 17.0029 51.4776 17.2546 50.2105 17.772C49.0615 18.2512 48.0126 18.9464 47.1192 19.821C46.2554 20.6924 45.5848 21.7402 45.152 22.8945C44.6515 24.101 44.4027 25.3993 44.4213 26.7079C44.3878 28.1282 44.6314 29.5413 45.1379 30.8663C45.5409 32.0864 46.2025 33.2026 47.0763 34.1366C47.9501 35.0706 49.015 35.7999 50.1965 36.2733C51.4175 36.8025 52.7324 37.0737 54.0606 37.0701C55.4176 37.0718 56.7609 36.7947 58.0091 36.2555H57.995Z" fill="#1D3E6F"/>
<path d="M80.3111 40.4104C78.5666 39.6887 76.9951 38.5971 75.7022 37.2089C74.4008 35.8675 73.3699 34.2823 72.6671 32.5418C71.1681 28.8597 71.1681 24.7268 72.6671 21.0447C73.3828 19.2942 74.4117 17.6926 75.7022 16.3207C77.0253 14.9686 78.5891 13.8823 80.3111 13.1192C82.1864 12.3547 84.1911 11.9681 86.2127 11.9808C87.9109 11.9817 89.5985 12.2506 91.215 12.7777C92.7025 13.2788 94.1053 14.0083 95.3742 14.9405C96.6085 15.8701 97.6777 17.0057 98.5358 18.2985C99.3797 19.6095 100.006 21.0514 100.391 22.5672H95.2056C94.5945 20.768 93.4329 19.2129 91.8895 18.1278C90.2065 17.0069 88.2265 16.4312 86.2127 16.4772C84.8429 16.4662 83.4852 16.7373 82.222 17.274C81.056 17.7726 80.0037 18.5088 79.1307 19.4368C78.2745 20.4012 77.6069 21.5214 77.1635 22.738C76.1892 25.3417 76.1892 28.2163 77.1635 30.82C77.5943 32.0258 78.2637 33.1298 79.1307 34.0643C79.9859 35.0271 81.0418 35.7853 82.222 36.284C83.4852 36.8207 84.8429 37.0918 86.2127 37.0808C88.2358 37.1353 90.2237 36.5373 91.8895 35.3733C93.442 34.3229 94.6079 32.7821 95.2056 30.9908H100.394C100.01 32.5066 99.3832 33.9485 98.5393 35.2595C97.695 36.5475 96.6231 37.6666 95.3777 38.5606C94.1266 39.5489 92.7191 40.3151 91.215 40.8266C89.5985 41.3537 87.9109 41.6225 86.2127 41.6234C84.1835 41.6398 82.1733 41.2267 80.3111 40.4104Z" fill="#1D3E6F"/>
<path d="M111.466 40.4104C109.72 39.7038 108.136 38.6422 106.812 37.2912C105.487 35.9403 104.451 34.3286 103.765 32.5559C103.016 30.7348 102.634 28.7803 102.641 26.8074C102.639 24.8166 103.021 22.8446 103.765 21.002C104.468 19.2615 105.499 17.6762 106.801 16.3349C108.144 14.9818 109.727 13.8958 111.466 13.1333C115.238 11.6155 119.44 11.6155 123.213 13.1333C124.952 13.8958 126.534 14.9818 127.878 16.3349C129.196 17.6736 130.246 19.2586 130.969 21.002C131.69 22.8492 132.048 24.8213 132.023 26.8074C132.054 28.7756 131.695 30.73 130.969 32.5559C130.262 34.3236 129.212 35.9297 127.881 37.2788C126.55 38.628 124.965 39.6929 123.22 40.4104C121.36 41.1993 119.363 41.6056 117.346 41.6056C115.329 41.6056 113.333 41.1993 111.473 40.4104H111.466ZM121.358 36.2555C122.538 35.7568 123.594 34.9986 124.449 34.0357C125.297 33.0865 125.964 31.9866 126.416 30.7915C126.877 29.5156 127.105 28.1658 127.091 26.8074C127.1 25.4495 126.872 24.1005 126.416 22.8233C125.951 21.6174 125.286 20.501 124.449 19.5222C123.576 18.5941 122.524 17.8579 121.358 17.3594C118.804 16.2956 115.94 16.2918 113.384 17.3487C112.218 17.8472 111.165 18.5834 110.292 19.5115C108.552 21.529 107.593 24.1176 107.594 26.7967C107.571 28.1611 107.819 29.5162 108.325 30.7809C108.756 31.9866 109.425 33.0906 110.292 34.0251C111.148 34.9879 112.203 35.7461 113.384 36.2448C115.941 37.3071 118.808 37.3071 121.365 36.2448L121.358 36.2555Z" fill="#1D3E6F"/>
<path d="M133.698 41.3779C133.32 41.3771 132.944 41.339 132.574 41.2641V36.8815C132.869 36.9474 133.171 36.9855 133.473 36.9954H134.372C134.858 37.015 135.34 36.9168 135.78 36.7088C136.22 36.5009 136.605 36.1893 136.902 35.8001C137.52 35.0602 137.801 33.5804 137.801 31.4176V12.5642H159.496V41.0222H154.663V17.0748H142.635V32.4421C142.635 35.4586 141.904 37.7353 140.499 39.2009C139.797 39.9243 138.956 40.4945 138.028 40.8763C137.1 41.258 136.104 41.4433 135.103 41.4206C134.634 41.4359 134.165 41.4217 133.698 41.3779Z" fill="#1D3E6F"/>
<path d="M184.935 40.638C183.354 40.0432 181.916 39.1115 180.72 37.906C179.466 36.7562 178.453 35.3626 177.741 33.8081C176.942 32.2207 176.428 30.5018 176.224 28.7319H170.828V41.0258H165.994V12.5677H170.828V24.3494H176.266C176.525 22.6241 177.056 20.9522 177.84 19.3977C178.613 17.9478 179.625 16.6425 180.832 15.538C182.064 14.406 183.493 13.5179 185.048 12.9199C186.681 12.2922 188.416 11.9843 190.163 12.0128C192.113 11.9999 194.045 12.3872 195.843 13.1511C197.531 13.8849 199.059 14.9487 200.339 16.2815C201.576 17.6729 202.565 19.2714 203.262 21.0056C203.943 22.8629 204.286 24.8298 204.274 26.811C204.291 28.774 203.948 30.7232 203.262 32.5595C202.591 34.3024 201.599 35.9006 200.339 37.2693C199.077 38.6423 197.546 39.7328 195.843 40.4708C194.045 41.2348 192.113 41.622 190.163 41.6092C188.376 41.6114 186.605 41.2822 184.935 40.638ZM193.876 36.2021C194.981 35.6855 195.974 34.9501 196.795 34.0393C197.61 33.0854 198.24 31.9849 198.653 30.7951C199.113 29.5191 199.342 28.1693 199.328 26.811C199.337 25.4345 199.109 24.0669 198.653 22.7699C198.228 21.5987 197.599 20.5142 196.795 19.5684C195.974 18.6576 194.981 17.9223 193.876 17.4056C192.706 16.8896 191.446 16.6186 190.17 16.6088C188.895 16.599 187.63 16.8507 186.453 17.3487C185.354 17.8512 184.376 18.5891 183.587 19.5115C182.774 20.4665 182.145 21.5668 181.732 22.7557C181.276 24.0526 181.048 25.4202 181.057 26.7967C181.043 28.1551 181.271 29.5049 181.732 30.7809C182.145 31.9698 182.774 33.0701 183.587 34.0251C184.375 34.9526 185.353 35.6954 186.453 36.2021C187.621 36.7283 188.886 37.0001 190.164 37.0001C191.443 37.0001 192.707 36.7283 193.876 36.2021Z" fill="#1D3E6F"/>
<path d="M204.933 17.0748V12.5785H230.141V17.0748H219.757V41.0365H214.913V17.0748H204.933Z" fill="#1D3E6F"/>
<path d="M280.554 24.1075V29.0059H231.795V24.1075H280.554Z" fill="#1D3E6F"/>
<path d="M292.813 7.41335V41.0365H287.755V2.40829H318.766V41.0401H313.652V7.41335H292.813Z" fill="#1D3E6F"/>
<path d="M332.409 40.4104C330.663 39.7038 329.079 38.6422 327.755 37.2912C326.431 35.9403 325.394 34.3286 324.709 32.5559C323.959 30.7348 323.577 28.7803 323.585 26.8074C323.583 24.8166 323.965 22.8446 324.709 21.002C325.412 19.2615 326.443 17.6762 327.744 16.3349C329.088 14.9818 330.67 13.8958 332.409 13.1333C336.181 11.6155 340.384 11.6155 344.156 13.1333C345.895 13.8958 347.477 14.9818 348.821 16.3349C350.14 17.6736 351.19 19.2586 351.912 21.002C352.634 22.8492 352.991 24.8213 352.966 26.8074C352.997 28.7756 352.639 30.73 351.912 32.5559C351.206 34.3233 350.156 35.9291 348.826 37.2783C347.495 38.6274 345.911 39.6925 344.167 40.4104C342.306 41.1993 340.31 41.6056 338.293 41.6056C336.276 41.6056 334.28 41.1993 332.42 40.4104H332.409ZM342.301 36.2555C343.481 35.7568 344.537 34.9986 345.392 34.0357C346.24 33.0865 346.907 31.9866 347.36 30.7915C347.82 29.5156 348.048 28.1658 348.034 26.8074C348.044 25.4495 347.815 24.1005 347.36 22.8233C346.895 21.6174 346.229 20.501 345.392 19.5222C344.52 18.5941 343.467 17.8579 342.301 17.3594C339.744 16.2971 336.877 16.2971 334.32 17.3594C333.154 17.8579 332.102 18.5941 331.229 19.5222C329.488 21.5397 328.529 24.1283 328.531 26.8074C328.507 28.1717 328.756 29.5268 329.261 30.7915C329.692 31.9973 330.362 33.1013 331.229 34.0357C332.084 34.9986 333.14 35.7568 334.32 36.2555C336.877 37.3178 339.744 37.3178 342.301 36.2555Z" fill="#1D3E6F"/>
<path d="M374.552 34.3275L385.685 12.5785H391.534V41.0365H386.693V20.3795L376.253 40.6914H372.838L362.412 20.4151V41.0472H357.578V12.5891H363.417L374.552 34.3275Z" fill="#1D3E6F"/>
<path d="M404.953 40.4104C403.207 39.7038 401.623 38.6422 400.299 37.2912C398.974 35.9403 397.937 34.3286 397.252 32.5559C396.503 30.7348 396.121 28.7803 396.128 26.8074C396.126 24.8166 396.508 22.8446 397.252 21.002C397.955 19.2615 398.986 17.6762 400.287 16.3349C401.631 14.9818 403.214 13.8958 404.953 13.1333C408.725 11.6155 412.927 11.6155 416.7 13.1333C418.439 13.8958 420.021 14.9818 421.365 16.3349C422.683 17.6736 423.733 19.2586 424.456 21.002C425.177 22.8492 425.535 24.8213 425.51 26.8074C425.54 28.7756 425.182 30.73 424.456 32.5559C423.748 34.3243 422.697 35.9307 421.365 37.2799C420.032 38.6291 418.446 39.6937 416.7 40.4104C414.839 41.1993 412.843 41.6056 410.826 41.6056C408.809 41.6056 406.813 41.1993 404.953 40.4104ZM414.845 36.2555C416.025 35.7568 417.081 34.9986 417.936 34.0357C418.784 33.0865 419.451 31.9866 419.903 30.7915C420.364 29.5156 420.592 28.1658 420.578 26.8074C420.587 25.4495 420.359 24.1005 419.903 22.8233C419.438 21.6174 418.773 20.501 417.936 19.5222C417.063 18.5941 416.011 17.8579 414.845 17.3594C412.288 16.2971 409.42 16.2971 406.863 17.3594C405.697 17.8579 404.645 18.5941 403.772 19.5222C402.031 21.5397 401.073 24.1283 401.074 26.8074C401.051 28.1717 401.299 29.5268 401.805 30.7915C402.236 31.9973 402.905 33.1013 403.772 34.0357C404.627 34.9986 405.683 35.7568 406.863 36.2555C409.42 37.3178 412.288 37.3178 414.845 36.2555Z" fill="#1D3E6F"/>
<path d="M466.983 48.2079V41.0365H429.986V12.5785H434.805V36.5579H445.99V12.5785H450.824V36.5579H462.009V12.5785H466.843V36.5579H471.522V48.2257L466.983 48.2079Z" fill="#1D3E6F"/>
<path d="M480.384 12.5785V22.8234H489.714C491.304 22.7944 492.886 23.0646 494.379 23.6202C495.576 24.0706 496.667 24.7684 497.583 25.6692C498.403 26.4876 499.036 27.4785 499.438 28.5719C499.814 29.6304 500.005 30.7478 500 31.873C500.01 32.9986 499.819 34.1169 499.438 35.1741C499.038 36.2848 498.405 37.2945 497.583 38.1338C496.649 39.0533 495.54 39.7699 494.323 40.2397C492.83 40.7953 491.248 41.0655 489.658 41.0365H475.55V12.5785H480.384ZM489.489 36.597C491.288 36.597 492.693 36.1986 493.705 35.3449C494.188 34.9127 494.57 34.3767 494.822 33.7761C495.075 33.1755 495.193 32.5253 495.166 31.873C495.166 30.3932 494.66 29.2549 493.705 28.458C492.749 27.6612 491.344 27.2628 489.545 27.2628H480.384V36.597H489.489Z" fill="#1D3E6F"/>
<path d="M2.97228 66.0203C2.35469 65.7586 1.80715 65.3593 1.37274 64.8536C0.895416 64.3308 0.547457 63.706 0.356141 63.0284C0.109771 62.2677 -0.0102603 61.4727 0.000686511 60.6742V59.8789C0.0326774 58.2184 0.0326791 57.4582 0.313488 56.3406C0.451536 55.7202 0.71113 55.1323 1.07771 54.61C1.64333 53.8592 2.38808 53.2576 3.24598 52.8583C4.87396 52.1577 6.8574 52.0771 8.10149 52.0385L9.39889 52V53.8883C8.00551 53.8883 4.53629 53.7517 3.1358 55.1285C2.8259 55.4502 2.59914 55.8407 2.47465 56.267C2.32217 56.8148 2.24682 57.3806 2.25071 57.9486C2.65646 57.4703 3.17695 57.0995 3.76495 56.8696C4.33115 56.6505 4.93393 56.5376 5.54222 56.5368C6.23752 56.5212 6.92856 56.6477 7.57186 56.9081C8.1496 57.1542 8.67166 57.5116 9.10743 57.9591C9.52458 58.3943 9.84855 58.9078 10.06 59.4691C10.2897 60.0585 10.4101 60.6839 10.4155 61.3153C10.4185 62.0015 10.2832 62.6815 10.0174 63.3157C9.76574 63.9239 9.39354 64.4765 8.92259 64.9412C8.45678 65.419 7.89342 65.7939 7.26973 66.0413C6.61537 66.3187 5.90976 66.4595 5.19743 66.4547C4.4331 66.4644 3.67515 66.3164 2.97228 66.0203ZM6.35621 64.216C6.71287 64.0792 7.03363 63.8649 7.29461 63.589C7.56105 63.2995 7.77614 62.9679 7.93088 62.608C8.07797 62.1987 8.15135 61.7671 8.1477 61.3328C8.14856 60.9433 8.07501 60.557 7.93088 60.1942C7.79282 59.8476 7.58205 59.5337 7.31238 59.2729C7.0415 59.0147 6.72457 58.808 6.37753 58.6633C5.98876 58.5198 5.57702 58.4462 5.16188 58.4461C4.74763 58.4433 4.33651 58.5169 3.94978 58.6633C3.59872 58.8085 3.28081 59.0218 3.01494 59.2904C2.75442 59.5598 2.54495 59.8731 2.39645 60.2153C2.25283 60.571 2.17808 60.95 2.17606 61.3328C2.17356 61.7673 2.24814 62.1989 2.39645 62.608C2.53552 62.9717 2.74565 63.305 3.01494 63.589C3.27359 63.8659 3.59347 64.0805 3.94978 64.216C4.33101 64.3596 4.736 64.4321 5.1441 64.4297C5.55546 64.4296 5.96351 64.3573 6.3491 64.216H6.35621Z" fill="#1D3E6F"/>
<path d="M11.6807 66.3145V64.4508C11.7923 64.4689 11.9054 64.4759 12.0184 64.4718C12.1232 64.4863 12.229 64.4922 12.3348 64.4893C12.503 64.4996 12.6714 64.4714 12.8267 64.4069C12.9821 64.3425 13.1203 64.2436 13.2305 64.118C13.4509 63.8622 13.5504 63.3928 13.5504 62.6676V56.4457H21.6334V66.255H19.4438V58.348H15.7365V63.0004C15.7497 63.5137 15.6691 64.0252 15.4983 64.5103C15.3579 64.8983 15.1417 65.2553 14.862 65.5613C14.5956 65.8399 14.2687 66.0554 13.9059 66.1919C13.5355 66.3235 13.1443 66.3888 12.7506 66.3846C12.3925 66.3986 12.0338 66.3751 11.6807 66.3145Z" fill="#1D3E6F"/>
<path d="M27.0932 66.0203C26.5057 65.7708 25.9822 65.395 25.5612 64.9202C24.8942 64.1703 24.4487 63.2544 24.2733 62.2722C24.0978 61.2901 24.199 60.2793 24.566 59.3499C24.7994 58.7541 25.1361 58.2029 25.5612 57.7209C25.9931 57.2589 26.5138 56.8861 27.0932 56.6244C27.6883 56.3631 28.3328 56.2293 28.9843 56.232C29.6554 56.2253 30.318 56.3804 30.9144 56.6839C31.4066 56.9381 31.8352 57.2971 32.1691 57.7349V56.4457H34.3587V66.255H32.1691V64.9377C31.8411 65.3809 31.4111 65.7411 30.9144 65.9887C30.3235 66.3086 29.6583 66.4716 28.9843 66.4617C28.3282 66.4572 27.6817 66.3063 27.0932 66.0203ZM30.598 64.216C30.9559 64.0637 31.2752 63.8352 31.5329 63.5469C31.7971 63.263 32.0002 62.9293 32.13 62.566C32.4239 61.7682 32.4239 60.8939 32.13 60.0961C32.0054 59.729 31.8049 59.3912 31.5412 59.1042C31.2776 58.8172 30.9564 58.5871 30.598 58.4286C30.2132 58.2696 29.7996 58.1897 29.3824 58.1938C28.9719 58.1879 28.5648 58.2679 28.188 58.4286C27.8356 58.5886 27.5181 58.8147 27.2532 59.0942C26.9876 59.3882 26.7791 59.7278 26.6383 60.0961C26.3444 60.8939 26.3444 61.7682 26.6383 62.566C26.7744 62.9303 26.9835 63.2639 27.2532 63.5469C27.5072 63.8392 27.8275 64.0684 28.188 64.216C28.5605 64.3918 28.9695 64.4793 29.3824 64.4718C29.8019 64.4775 30.2174 64.3901 30.598 64.216Z" fill="#1D3E6F"/>
<path d="M44.0804 56.4457V58.3655H39.7403V66.255H37.5507V56.4457H44.0804Z" fill="#1D3E6F"/>
<path d="M48.5378 66.0413C47.2916 65.5185 46.2992 64.5404 45.7688 63.3122C45.503 62.6853 45.3677 62.0122 45.3707 61.3328C45.3698 60.6457 45.5051 59.965 45.7688 59.3289C46.0295 58.7204 46.4087 58.1682 46.8849 57.7034C47.3559 57.2369 47.9183 56.8698 48.5378 56.6244C49.1869 56.3604 49.883 56.227 50.5852 56.232C51.2884 56.2288 51.9853 56.3621 52.6362 56.6244C53.259 56.8755 53.8272 57.2418 54.3104 57.7034C54.7721 58.1755 55.143 58.7263 55.4052 59.3289C55.6673 59.9655 55.8024 60.6459 55.8033 61.3328C55.8034 62.0123 55.6669 62.685 55.4016 63.3122C55.1474 63.9257 54.7716 64.4831 54.2962 64.9518C53.8207 65.4204 53.2551 65.7908 52.6326 66.0413C51.9812 66.3019 51.2847 66.4352 50.5817 66.4336C49.8808 66.4365 49.1863 66.3032 48.5378 66.0413ZM51.8009 64.195C52.1593 64.0453 52.4789 63.8177 52.7357 63.5294C53.005 63.2454 53.2151 62.9122 53.3542 62.5485C53.6434 61.7619 53.6434 60.9002 53.3542 60.1137C53.2111 59.7467 53.0015 59.4083 52.7357 59.1152C52.4713 58.8396 52.1534 58.6192 51.8009 58.4671C51.023 58.1527 50.1509 58.1527 49.3731 58.4671C49.0112 58.6136 48.6852 58.8346 48.4169 59.1152C48.1523 59.4092 47.9428 59.7473 47.7984 60.1137C47.5092 60.9002 47.5092 61.7619 47.7984 62.5485C47.9389 62.9115 48.1489 63.2445 48.4169 63.5294C48.6774 63.8231 49.0052 64.0513 49.3731 64.195C50.1509 64.5094 51.023 64.5094 51.8009 64.195Z" fill="#1D3E6F"/>
<path d="M57.0971 58.348V56.4457H65.397V58.3655H62.269V66.255H60.0794V58.348H57.0971Z" fill="#1D3E6F"/>
<path d="M71.9835 56.4457C72.5163 56.44 73.0469 56.512 73.5582 56.6594C73.9582 56.7943 74.3294 57.0009 74.653 57.269C74.9395 57.5145 75.1635 57.8229 75.307 58.1693C75.4515 58.5113 75.5264 58.8779 75.5274 59.2483C75.5305 59.5867 75.4591 59.9218 75.3179 60.2302C75.1767 60.5387 74.9693 60.8133 74.7099 61.035C75.1439 61.2676 75.5109 61.6052 75.7762 62.016C76.0294 62.4159 76.1602 62.8794 76.153 63.3507C76.1579 63.7197 76.0903 64.0861 75.954 64.4297C75.823 64.7843 75.6043 65.101 75.3177 65.3511C74.9962 65.6423 74.6158 65.8632 74.2016 65.9992C73.6727 66.1848 73.1134 66.2715 72.5523 66.255H67.4337V56.4457H71.9835ZM72.9397 60.1522C73.0649 60.0447 73.1652 59.912 73.234 59.763C73.3027 59.614 73.3383 59.4523 73.3383 59.2886C73.3383 59.125 73.3027 58.9632 73.234 58.8143C73.1652 58.6653 73.0649 58.5326 72.9397 58.4251C72.6744 58.2722 72.3727 58.1912 72.0653 58.1903H69.6198V60.4079H72.0511C72.3682 60.4055 72.6774 60.3104 72.9397 60.1347V60.1522ZM73.576 64.1144C73.7082 64.0047 73.8128 63.8663 73.8819 63.7102C73.9509 63.554 73.9825 63.3842 73.9741 63.2141C73.9845 63.0401 73.9539 62.8661 73.8849 62.7057C73.8158 62.5453 73.7101 62.4027 73.576 62.2892C73.2792 62.0684 72.9129 61.958 72.5416 61.9774H69.6198V64.4297H72.5274C72.9063 64.4481 73.2791 64.3298 73.576 64.0969V64.1144Z" fill="#1D3E6F"/>
<path d="M81.1472 66.0413C79.9011 65.5196 78.9094 64.541 78.3818 63.3122C78.116 62.6853 77.9806 62.0122 77.9837 61.3328C77.9828 60.6457 78.118 59.965 78.3818 59.3289C78.6412 58.7206 79.0192 58.1683 79.4943 57.7034C79.9659 57.2376 80.5281 56.8706 81.1472 56.6244C81.7975 56.3601 82.4948 56.2267 83.1982 56.232C83.9013 56.2294 84.5981 56.3627 85.2491 56.6244C85.8709 56.8755 86.438 57.2418 86.9198 57.7034C87.3827 58.1746 87.7538 58.7255 88.0146 59.3289C88.2783 59.965 88.4136 60.6457 88.4127 61.3328C88.4157 62.0122 88.2803 62.6853 88.0146 63.3122C87.7605 63.9252 87.3851 64.4822 86.9103 64.9508C86.4355 65.4193 85.8708 65.79 85.2491 66.0413C84.5976 66.3012 83.9011 66.4344 83.1982 66.4336C82.495 66.4374 81.7979 66.3041 81.1472 66.0413ZM84.4103 64.195C84.7693 64.0462 85.089 63.8186 85.3451 63.5294C85.6144 63.2454 85.8245 62.9122 85.9636 62.5485C86.259 61.763 86.259 60.8991 85.9636 60.1136C85.8205 59.7466 85.611 59.4083 85.3451 59.1152C85.0812 58.839 84.7632 58.6186 84.4103 58.4671C83.6325 58.1527 82.7603 58.1527 81.9825 58.4671C81.6211 58.6145 81.2953 58.8354 81.0263 59.1152C80.7616 59.4085 80.5532 59.7468 80.4114 60.1136C80.1161 60.8991 80.1161 61.763 80.4114 62.5485C80.5492 62.912 80.7581 63.2453 81.0263 63.5294C81.2876 63.8221 81.6152 64.0502 81.9825 64.195C82.7603 64.5094 83.6325 64.5094 84.4103 64.195Z" fill="#1D3E6F"/>
<path d="M90.9081 56.4457H93.0977V57.7594C93.4342 57.3173 93.8697 56.9577 94.3702 56.7084C94.9667 56.4054 95.6292 56.2502 96.3003 56.2565C96.9585 56.2553 97.6097 56.3889 98.2127 56.6489C98.783 56.9154 99.2959 57.2877 99.7233 57.7454C100.149 58.2309 100.492 58.781 100.74 59.3745C101.116 60.3037 101.22 61.3183 101.04 62.3029C100.861 63.2876 100.404 64.2028 99.7233 64.9447C99.3067 65.415 98.7912 65.7904 98.2127 66.0448C97.6139 66.3197 96.9609 66.4608 96.3003 66.4582C95.6263 66.4671 94.9615 66.3042 94.3702 65.9852C93.8654 65.7425 93.4285 65.3817 93.0977 64.9342V70H90.9081V56.4457ZM97.1179 64.2335C97.4758 64.0812 97.795 63.8527 98.0527 63.5644C98.3169 63.2806 98.5201 62.9469 98.6499 62.5835C98.9437 61.7857 98.9437 60.9114 98.6499 60.1136C98.5252 59.7465 98.3248 59.4087 98.0611 59.1217C97.7974 58.8347 97.4762 58.6047 97.1179 58.4461C96.34 58.1317 95.4679 58.1317 94.6901 58.4461C94.3361 58.6053 94.0173 58.8314 93.7517 59.1117C93.4874 59.4066 93.279 59.746 93.1368 60.1136C92.8429 60.9114 92.8429 61.7857 93.1368 62.5835C93.2743 62.9472 93.4833 63.2805 93.7517 63.5644C94.0068 63.8571 94.3283 64.0864 94.6901 64.2335C95.0719 64.4022 95.4856 64.4894 95.904 64.4894C96.3224 64.4894 96.7361 64.4022 97.1179 64.2335Z" fill="#1D3E6F"/>
<path d="M103.651 56.4457H105.841V62.9619L110.916 56.4457H112.868V66.255H110.678V59.7038L105.602 66.255H103.651V56.4457Z" fill="#1D3E6F"/>
<path d="M114.905 58.348V56.4457H123.208V58.3655H120.094V66.255H117.89V58.348H114.905Z" fill="#1D3E6F"/>
<path d="M127.605 66.0413C127.003 65.7983 126.454 65.4413 125.991 64.9903C125.529 64.5314 125.166 63.9842 124.925 63.3823C124.666 62.7332 124.538 62.0406 124.548 61.3433C124.538 60.6516 124.666 59.9647 124.925 59.3219C125.148 58.7146 125.499 58.1609 125.956 57.6976C126.412 57.2344 126.964 56.8721 127.573 56.6349C128.236 56.3677 128.947 56.2342 129.663 56.2425C130.381 56.2348 131.093 56.3744 131.753 56.6524C132.382 56.9199 132.944 57.3207 133.398 57.8263C133.852 58.3319 134.187 58.9298 134.38 59.5777C134.614 60.3194 134.702 61.0981 134.64 61.8723H126.727C126.739 62.2365 126.828 62.5943 126.987 62.9233C127.296 63.5747 127.854 64.0787 128.54 64.3246C128.921 64.4682 129.326 64.5407 129.734 64.5383C130.259 64.5377 130.775 64.4178 131.245 64.188C131.693 63.9656 132.046 63.5929 132.24 63.137H134.529C134.389 63.5932 134.174 64.0238 133.893 64.4122C133.602 64.8207 133.241 65.1763 132.827 65.4632C132.39 65.7645 131.911 66.0006 131.405 66.1639C130.839 66.3417 130.247 66.4281 129.653 66.4196C128.951 66.4274 128.256 66.2988 127.605 66.0413ZM127.804 58.6037C127.528 58.8116 127.296 59.0712 127.121 59.3676C126.947 59.6639 126.834 59.9913 126.788 60.3309H132.301C132.193 59.6441 131.832 59.0206 131.288 58.5792C130.809 58.2146 130.219 58.0207 129.613 58.0292C128.963 58.0208 128.327 58.2226 127.804 58.6037Z" fill="#1D3E6F"/>
<path d="M136.108 66.3145V64.4508C136.225 64.47 136.344 64.477 136.463 64.4718C136.569 64.4864 136.676 64.4922 136.783 64.4893C136.951 64.4988 137.119 64.4702 137.274 64.4058C137.43 64.3415 137.568 64.243 137.679 64.118C137.895 63.8622 137.995 63.3928 137.995 62.6676V56.4457H146.099V66.255H143.906V58.348H140.167V63.0004C140.18 63.5137 140.099 64.0252 139.929 64.5103C139.79 64.8991 139.574 65.2564 139.292 65.5613C139.027 65.8406 138.7 66.0563 138.336 66.1919C137.966 66.3238 137.575 66.3891 137.181 66.3846C136.822 66.3986 136.462 66.3751 136.108 66.3145Z" fill="#1D3E6F"/>
<path d="M151.449 56.4457V59.6828H153.539C154.112 59.6673 154.681 59.7674 155.213 59.977C155.645 60.165 156.037 60.4312 156.368 60.7618C156.652 61.065 156.868 61.4229 157.005 61.8128C157.136 62.1784 157.203 62.5634 157.204 62.9514C157.204 63.3462 157.137 63.7382 157.005 64.1109C156.863 64.5028 156.638 64.8609 156.347 65.1619C156.033 65.5031 155.645 65.7712 155.213 65.9467C154.686 66.1739 154.114 66.2816 153.539 66.262H149.274V56.4457H151.449ZM153.361 64.3527C153.824 64.3854 154.284 64.2523 154.655 63.9778C154.805 63.8543 154.923 63.6974 154.999 63.5201C155.075 63.3429 155.107 63.1503 155.092 62.9584C155.108 62.7616 155.077 62.5639 155.001 62.3813C154.925 62.1986 154.807 62.0363 154.655 61.9074C154.272 61.6585 153.819 61.5358 153.361 61.557H151.449V64.3246L153.361 64.3527Z" fill="#1D3E6F"/>
<path d="M161.583 56.4457V60.2993H166.381V56.4457H168.571V66.255H166.381V62.2332H161.583V66.255H159.393V56.4457H161.583Z" fill="#1D3E6F"/>
<path d="M173.942 56.4457V59.6828H176.032C176.604 59.6672 177.172 59.7674 177.703 59.9771C178.134 60.165 178.526 60.4312 178.858 60.7618C179.142 61.065 179.358 61.4229 179.494 61.8128C179.626 62.1784 179.693 62.5634 179.693 62.9514C179.694 63.3462 179.626 63.7382 179.494 64.1109C179.352 64.5028 179.128 64.8609 178.837 65.1619C178.522 65.5031 178.135 65.7712 177.703 65.9467C177.177 66.1739 176.606 66.2817 176.032 66.262H171.767V56.4457H173.942ZM175.851 64.3527C176.314 64.3854 176.773 64.2523 177.145 63.9778C177.295 63.8547 177.414 63.6979 177.49 63.5206C177.567 63.3433 177.6 63.1506 177.586 62.9584C177.601 62.7614 177.569 62.5636 177.493 62.381C177.416 62.1984 177.297 62.0361 177.145 61.9074C176.762 61.6585 176.309 61.5358 175.851 61.557H173.942V64.3246L175.851 64.3527ZM183.337 56.4457V66.255H181.147V56.4457H183.337Z" fill="#1D3E6F"/>
<path d="M186.529 56.4457H188.718V62.9619L193.794 56.4457H195.742V66.255H193.552V59.7038L188.477 66.255H186.529V56.4457ZM190.012 54.8552C189.609 54.7274 189.243 54.5049 188.946 54.2071C188.381 53.6346 188.049 52.8781 188.011 52.0806H189.454C189.499 52.532 189.707 52.9524 190.041 53.2647C190.199 53.4298 190.39 53.5606 190.603 53.6487C190.815 53.7367 191.044 53.7802 191.274 53.7762C191.508 53.7803 191.74 53.737 191.955 53.649C192.171 53.561 192.366 53.4302 192.529 53.2647C192.855 52.9506 193.052 52.529 193.083 52.0806H194.534C194.503 52.875 194.18 53.6312 193.624 54.2071C193.323 54.5005 192.958 54.7222 192.557 54.8552C192.145 55.0121 191.706 55.0917 191.263 55.0899C190.834 55.0857 190.409 55.0001 190.012 54.8377V54.8552Z" fill="#1D3E6F"/>
<path d="M209.438 66.4337H209.278C208.489 66.4491 207.704 66.3085 206.971 66.0203C206.34 65.7786 205.768 65.4093 205.291 64.9362C204.814 64.4631 204.443 63.8968 204.202 63.2737C203.723 62.0216 203.723 60.6406 204.202 59.3885C204.445 58.7663 204.816 58.2007 205.293 57.7278C205.77 57.2549 206.341 56.8851 206.971 56.6419C207.704 56.355 208.489 56.2156 209.278 56.232H209.438V52.0281H211.627V56.232H211.801C212.59 56.2189 213.374 56.3582 214.108 56.6419C214.738 56.881 215.309 57.2497 215.783 57.7233C216.256 58.1969 216.622 58.7646 216.856 59.3885C217.335 60.6406 217.335 62.0216 216.856 63.2737C216.624 63.8984 216.258 64.4668 215.784 64.9406C215.31 65.4144 214.739 65.7825 214.108 66.0203C213.374 66.3052 212.59 66.4456 211.801 66.4337H211.642V69.986H209.452L209.438 66.4337ZM209.278 58.1974C208.815 58.1917 208.356 58.2713 207.923 58.4321C207.551 58.5888 207.212 58.8162 206.928 59.1012C206.651 59.389 206.435 59.7285 206.292 60.0997C206.003 60.8862 206.003 61.7479 206.292 62.5345C206.423 62.9021 206.634 63.237 206.91 63.5154C207.182 63.8142 207.524 64.0427 207.906 64.181C208.339 64.3623 208.807 64.4495 209.278 64.4368H209.438V58.1974H209.278ZM211.627 64.4368H211.801C212.266 64.4479 212.728 64.3607 213.156 64.181C213.54 64.038 213.887 63.8104 214.169 63.5154C214.438 63.2314 214.648 62.8982 214.787 62.5345C215.077 61.7479 215.077 60.8862 214.787 60.0997C214.645 59.7285 214.428 59.389 214.151 59.1012C213.855 58.8205 213.511 58.5939 213.134 58.4321C212.709 58.2712 212.257 58.1916 211.801 58.1974H211.642L211.627 64.4368Z" fill="#1D3E6F"/>
<path d="M222.287 66.0413C221.043 65.5168 220.053 64.5391 219.522 63.3122C219.259 62.6907 219.123 62.0238 219.124 61.3503C219.123 60.6632 219.258 59.9825 219.522 59.3465C219.783 58.7379 220.162 58.1857 220.638 57.7209C221.108 57.2545 221.669 56.8874 222.287 56.6419C222.938 56.3783 223.635 56.2449 224.338 56.2495C225.042 56.2466 225.738 56.38 226.389 56.6419C227.012 56.8922 227.579 57.2586 228.06 57.7209C229.026 58.6878 229.563 59.9933 229.553 61.3503C229.556 62.0297 229.421 62.7028 229.155 63.3297C228.901 63.9427 228.525 64.4998 228.051 64.9683C227.576 65.4369 227.011 65.8076 226.389 66.0588C225.738 66.3191 225.041 66.4523 224.338 66.4512C223.634 66.4485 222.937 66.3092 222.287 66.0413ZM225.554 64.195C225.912 64.0443 226.231 63.817 226.489 63.5294C226.757 63.2445 226.967 62.9115 227.107 62.5485C227.397 61.7619 227.397 60.9002 227.107 60.1137C226.963 59.7473 226.754 59.4092 226.489 59.1152C226.224 58.8404 225.906 58.6201 225.554 58.4671C224.776 58.1527 223.904 58.1527 223.126 58.4671C222.764 58.6136 222.438 58.8346 222.17 59.1152C221.904 59.4084 221.695 59.7467 221.552 60.1137C221.263 60.9002 221.263 61.7619 221.552 62.5485C221.691 62.9122 221.901 63.2454 222.17 63.5294C222.431 63.8231 222.758 64.0513 223.126 64.195C223.904 64.5094 224.776 64.5094 225.554 64.195Z" fill="#1D3E6F"/>
<path d="M234.277 56.4457V60.2993H239.072V56.4457H241.262V66.255H239.072V62.2332H234.277V66.255H232.087V56.4457H234.277Z" fill="#1D3E6F"/>
<path d="M244.393 64.1775C244.575 64.0657 244.726 63.9102 244.83 63.7256C244.987 63.4516 245.094 63.1529 245.147 62.8428C245.217 62.3789 245.25 61.9104 245.246 61.4414V56.4457H253.45V64.3317H255V68.7073H253.009V66.255H245.588V68.7073H243.576V64.3141H243.835C244.03 64.3176 244.223 64.2705 244.393 64.1775ZM247.397 62.566C247.382 62.812 247.342 63.0561 247.28 63.2947C247.219 63.5084 247.159 63.687 247.098 63.8412C247.044 64.0098 246.963 64.1693 246.86 64.3141H251.257V58.3585H247.436V61.6551C247.436 61.9984 247.418 62.3137 247.397 62.566Z" fill="#1D3E6F"/>
</svg>
