<svg width="238" height="40" viewBox="0 0 238 40" fill="none" xmlns="http://www.w3.org/2000/svg">
<path d="M10.4809 1.14522L18.7846 19.5158H16.1845L13.6763 13.9133H5.10499L2.5968 19.5158H0L8.30208 1.14522H10.4809ZM12.6546 11.633L9.39231 4.35922L6.12498 11.633H12.6546Z" fill="#1D3E6F"/>
<path d="M22.8702 19.2164C22.0322 18.8653 21.2826 18.3289 20.6764 17.6466C20.0498 16.952 19.5756 16.131 19.2851 15.2378C18.9546 14.2346 18.7918 13.1826 18.8036 12.1252V10.7449C18.8036 8.67273 18.8588 7.42773 19.1263 6.17765C19.3621 5.06967 19.6463 4.18666 20.2617 3.32057C20.8285 2.52114 21.5792 1.87324 22.4488 1.43277C24.4554 0.35354 27.5321 0.191149 29.1674 0.0795045L31.1555 0V2.23627H30.8546C28.8815 2.23627 23.8316 2.41558 22.3485 4.2391C21.9425 4.70236 21.6514 5.25667 21.499 5.85625C21.2882 6.667 21.1649 7.49847 21.1312 8.33611C21.6957 7.52883 22.475 6.90005 23.3785 6.52274C24.2267 6.1671 25.1357 5.9832 26.0539 5.98143C27.0166 5.97013 27.9718 6.15419 28.8631 6.52274C29.6562 6.84913 30.3687 7.3481 30.9499 7.98426C31.5204 8.60894 31.9736 9.33348 32.2876 10.1224C32.5875 10.9457 32.7415 11.8162 32.7424 12.6936C32.7544 13.6381 32.584 14.5759 32.2408 15.4543C31.9131 16.2936 31.4218 17.0576 30.796 17.7007C30.1707 18.3615 29.4138 18.8804 28.5755 19.2231C26.7498 19.9809 24.7025 19.9809 22.8769 19.2231L22.8702 19.2164ZM27.6056 17.2406C28.1592 17.0132 28.6603 16.6722 29.0771 16.2392C29.4951 15.7836 29.8222 15.2506 30.0402 14.6694C30.2857 14.0408 30.4062 13.3694 30.3947 12.6936C30.4052 12.0559 30.2868 11.4227 30.0469 10.8329C29.8309 10.2892 29.5129 9.79286 29.1105 9.37136C28.684 8.96385 28.1846 8.64235 27.6391 8.42407C27.0507 8.20323 26.4273 8.09315 25.7997 8.09928C25.1496 8.08538 24.5033 8.20508 23.9002 8.45114C23.3533 8.67898 22.854 9.00959 22.4287 9.42549C22.0176 9.83987 21.6984 10.3381 21.4924 10.887C21.2541 11.4608 21.1357 12.0781 21.1445 12.7004C21.1286 13.3758 21.2445 14.0478 21.4857 14.6778C21.6775 15.2581 21.9924 15.7888 22.4083 16.233C22.8243 16.6771 23.3312 17.0239 23.8935 17.249C24.4747 17.5007 25.1006 17.6296 25.7329 17.628C26.3788 17.6288 27.0182 17.497 27.6123 17.2406H27.6056Z" fill="#1D3E6F"/>
<path d="M38.2281 19.2164C37.3977 18.8732 36.6497 18.3541 36.0342 17.6939C35.4148 17.0561 34.9241 16.3023 34.5895 15.4746C33.876 13.7237 33.876 11.7583 34.5895 10.0074C34.9302 9.17495 35.42 8.41335 36.0342 7.76097C36.664 7.11803 37.4084 6.60147 38.2281 6.23855C39.1207 5.87503 40.075 5.69117 41.0372 5.69725C41.8456 5.69768 42.6489 5.82552 43.4183 6.07616C44.1264 6.31449 44.7941 6.66136 45.3981 7.10464C45.9857 7.54672 46.4946 8.08671 46.903 8.7015C47.3047 9.32491 47.603 10.0106 47.7859 10.7314H45.3179C45.027 9.87579 44.4741 9.13629 43.7394 8.6203C42.9383 8.0873 41.9958 7.81354 41.0372 7.8354C40.3852 7.83017 39.7389 7.95909 39.1377 8.21432C38.5827 8.45139 38.0818 8.80148 37.6662 9.2428C37.2587 9.70137 36.9409 10.2341 36.7298 10.8126C36.2661 12.0507 36.2661 13.4177 36.7298 14.6559C36.9349 15.2292 37.2535 15.7542 37.6662 16.1986C38.0733 16.6564 38.5759 17.017 39.1377 17.2541C39.7389 17.5093 40.3852 17.6383 41.0372 17.633C42.0002 17.6589 42.9465 17.3746 43.7394 16.8211C44.4784 16.3216 45.0334 15.5889 45.3179 14.737H47.7876C47.6046 15.4578 47.3064 16.1435 46.9047 16.7669C46.5028 17.3794 45.9926 17.9116 45.3998 18.3367C44.8043 18.8067 44.1343 19.171 43.4183 19.4143C42.6489 19.6649 41.8456 19.7927 41.0372 19.7932C40.0713 19.801 39.1145 19.6045 38.2281 19.2164Z" fill="#1D3E6F"/>
<path d="M53.0576 19.2163C52.2268 18.8803 51.4728 18.3755 50.8424 17.7331C50.212 17.0907 49.7185 16.3243 49.3924 15.4813C49.0357 14.6153 48.8537 13.6859 48.8573 12.7477C48.8564 11.8011 49.0381 10.8633 49.3924 9.98708C49.7269 9.1594 50.2176 8.40557 50.8371 7.76772C51.4767 7.12429 52.2299 6.60789 53.0576 6.2453C54.8532 5.52354 56.8536 5.52354 58.6492 6.2453C59.477 6.60789 60.2302 7.12429 60.8698 7.76772C61.4975 8.40434 61.9972 9.15803 62.3413 9.98708C62.6845 10.8655 62.8549 11.8033 62.8429 12.7477C62.8575 13.6837 62.6869 14.6131 62.3413 15.4813C62.0048 16.3219 61.5049 17.0856 60.8713 17.7272C60.2377 18.3688 59.4832 18.8752 58.6526 19.2163C57.7671 19.5915 56.8168 19.7847 55.8568 19.7847C54.8968 19.7847 53.9464 19.5915 53.061 19.2163H53.0576ZM57.7663 17.2406C58.3281 17.0034 58.8308 16.6429 59.2378 16.185C59.6414 15.7336 59.9589 15.2106 60.1742 14.6423C60.3933 14.0355 60.5021 13.3937 60.4953 12.7477C60.4998 12.102 60.3911 11.4605 60.1742 10.8532C59.9528 10.2797 59.6361 9.74883 59.2378 9.28337C58.8223 8.84205 58.3214 8.49197 57.7663 8.2549C56.5509 7.74905 55.1874 7.74723 53.9706 8.24982C53.4156 8.48689 52.9147 8.83698 52.4992 9.2783C51.6706 10.2377 51.2143 11.4687 51.215 12.7427C51.2037 13.3914 51.3219 14.0358 51.5628 14.6372C51.7678 15.2106 52.0865 15.7356 52.4992 16.18C52.9062 16.6378 53.4088 16.9984 53.9706 17.2355C55.1878 17.7406 56.5526 17.7406 57.7697 17.2355L57.7663 17.2406Z" fill="#1D3E6F"/>
<path d="M63.6402 19.6764C63.4605 19.6761 63.2813 19.6579 63.1051 19.6223V17.5383C63.2459 17.5696 63.3892 17.5877 63.5332 17.5924H63.9613C64.1922 17.6017 64.422 17.555 64.6315 17.4561C64.8409 17.3573 65.0239 17.2091 65.1652 17.024C65.4595 16.6722 65.5932 15.9685 65.5932 14.94V5.97464H75.9203V19.5073H73.6194V8.11956H67.8941V15.4272C67.8941 16.8616 67.5463 17.9443 66.8774 18.6412C66.5433 18.9852 66.143 19.2564 65.7012 19.4379C65.2595 19.6194 64.7857 19.7075 64.3091 19.6967C64.0859 19.704 63.8625 19.6973 63.6402 19.6764Z" fill="#1D3E6F"/>
<path d="M88.0293 19.3246C87.2763 19.0417 86.592 18.5987 86.0227 18.0255C85.4257 17.4787 84.9435 16.816 84.6048 16.0768C84.2242 15.3219 83.9796 14.5045 83.8824 13.6629H81.3141V19.509H79.0132V5.97634H81.3141V11.5789H83.9025C84.0259 10.7584 84.2788 9.96339 84.6516 9.22417C85.0196 8.53472 85.5015 7.91399 86.0763 7.38881C86.6622 6.85049 87.3429 6.42818 88.0828 6.1438C88.86 5.84529 89.6862 5.69891 90.5174 5.71245C91.4456 5.70632 92.3653 5.89046 93.2212 6.25376C94.0245 6.6027 94.7519 7.10855 95.3616 7.74235C95.9504 8.404 96.4211 9.16411 96.7528 9.98877C97.0768 10.872 97.24 11.8073 97.2343 12.7494C97.2424 13.6829 97.0791 14.6098 96.7528 15.483C96.4331 16.3118 95.9611 17.0718 95.3616 17.7227C94.7609 18.3756 94.0318 18.8942 93.2212 19.2451C92.3653 19.6084 91.4456 19.7925 90.5174 19.7864C89.6671 19.7875 88.8238 19.6309 88.0293 19.3246ZM92.2849 17.2152C92.8112 16.9695 93.2836 16.6198 93.6744 16.1867C94.0622 15.7331 94.3622 15.2098 94.5589 14.644C94.778 14.0372 94.8868 13.3954 94.88 12.7494C94.8845 12.0948 94.7758 11.4445 94.5589 10.8278C94.3566 10.2708 94.057 9.75514 93.6744 9.30537C93.2836 8.87226 92.8112 8.52258 92.2849 8.27689C91.7282 8.03153 91.1282 7.90265 90.521 7.898C89.9138 7.89334 89.3119 8.01302 88.7516 8.24982C88.2287 8.4888 87.7632 8.83969 87.3872 9.2783C87.0005 9.73243 86.7011 10.2557 86.5043 10.821C86.2874 11.4378 86.1788 12.0881 86.1833 12.7427C86.1765 13.3886 86.2852 14.0305 86.5043 14.6372C86.7011 15.2026 87.0005 15.7258 87.3872 16.18C87.7625 16.621 88.228 16.9743 88.7516 17.2152C89.3078 17.4654 89.9096 17.5947 90.5182 17.5947C91.1269 17.5947 91.7287 17.4654 92.2849 17.2152Z" fill="#1D3E6F"/>
<path d="M97.548 8.1196V5.98144H109.547V8.1196H104.604V19.5141H102.298V8.1196H97.548Z" fill="#1D3E6F"/>
<path d="M133.544 11.4639V13.7932H110.335V11.4639H133.544Z" fill="#1D3E6F"/>
<path d="M139.379 3.52527V19.5141H136.971V1.14522H151.733V19.5158H149.298V3.52527H139.379Z" fill="#1D3E6F"/>
<path d="M158.227 19.2163C157.396 18.8803 156.642 18.3755 156.011 17.7331C155.381 17.0907 154.887 16.3243 154.561 15.4813C154.205 14.6153 154.023 13.6859 154.026 12.7477C154.025 11.8011 154.207 10.8633 154.561 9.98708C154.896 9.1594 155.387 8.40557 156.006 7.76772C156.646 7.12429 157.399 6.60789 158.227 6.2453C160.022 5.52354 162.023 5.52354 163.818 6.2453C164.646 6.60789 165.399 7.12429 166.039 7.76772C166.667 8.40434 167.166 9.15803 167.51 9.98708C167.854 10.8655 168.024 11.8033 168.012 12.7477C168.026 13.6837 167.856 14.6131 167.51 15.4813C167.174 16.3218 166.674 17.0854 166.041 17.7269C165.408 18.3685 164.654 18.875 163.823 19.2163C162.938 19.5915 161.987 19.7847 161.027 19.7847C160.068 19.7847 159.117 19.5915 158.232 19.2163H158.227ZM162.935 17.2406C163.497 17.0034 164 16.6429 164.407 16.185C164.81 15.7336 165.128 15.2106 165.343 14.6423C165.562 14.0355 165.671 13.3937 165.664 12.7477C165.669 12.102 165.56 11.4605 165.343 10.8532C165.122 10.2797 164.805 9.74883 164.407 9.28337C163.991 8.84205 163.49 8.49197 162.935 8.2549C161.718 7.74975 160.353 7.74975 159.136 8.2549C158.581 8.49197 158.08 8.84205 157.665 9.28337C156.836 10.2428 156.38 11.4737 156.381 12.7477C156.369 13.3965 156.488 14.0409 156.728 14.6423C156.934 15.2157 157.252 15.7406 157.665 16.185C158.072 16.6429 158.575 17.0034 159.136 17.2406C160.353 17.7457 161.718 17.7457 162.935 17.2406Z" fill="#1D3E6F"/>
<path d="M178.287 16.3238L183.586 5.98144H186.37V19.5141H184.066V9.69108L179.096 19.35H177.471L172.508 9.70799V19.5192H170.207V5.98651H172.986L178.287 16.3238Z" fill="#1D3E6F"/>
<path d="M192.757 19.2163C191.926 18.8803 191.173 18.3755 190.542 17.7331C189.912 17.0907 189.418 16.3243 189.092 15.4813C188.735 14.6153 188.553 13.6859 188.557 12.7477C188.556 11.8011 188.738 10.8633 189.092 9.98708C189.427 9.1594 189.917 8.40557 190.537 7.76772C191.176 7.12429 191.93 6.60789 192.757 6.2453C194.553 5.52354 196.553 5.52354 198.349 6.2453C199.177 6.60789 199.93 7.12429 200.57 7.76772C201.197 8.40434 201.697 9.15803 202.041 9.98708C202.384 10.8655 202.555 11.8033 202.543 12.7477C202.557 13.6837 202.387 14.6131 202.041 15.4813C201.704 16.3222 201.204 17.0861 200.57 17.7277C199.935 18.3693 199.18 18.8755 198.349 19.2163C197.464 19.5915 196.513 19.7847 195.553 19.7847C194.593 19.7847 193.643 19.5915 192.757 19.2163ZM197.466 17.2406C198.028 17.0034 198.53 16.6429 198.938 16.185C199.341 15.7336 199.659 15.2106 199.874 14.6423C200.093 14.0355 200.202 13.3937 200.195 12.7477C200.199 12.102 200.091 11.4605 199.874 10.8532C199.653 10.2797 199.336 9.74883 198.938 9.28337C198.522 8.84205 198.021 8.49197 197.466 8.2549C196.249 7.74975 194.884 7.74975 193.667 8.2549C193.112 8.49197 192.611 8.84205 192.196 9.28337C191.367 10.2428 190.911 11.4737 190.911 12.7477C190.9 13.3965 191.018 14.0409 191.259 14.6423C191.464 15.2157 191.783 15.7406 192.196 16.185C192.603 16.6429 193.105 17.0034 193.667 17.2406C194.884 17.7457 196.249 17.7457 197.466 17.2406Z" fill="#1D3E6F"/>
<path d="M222.284 22.9243V19.5141H204.673V5.98144H206.967V17.3844H212.291V5.98144H214.592V17.3844H219.916V5.98144H222.217V17.3844H224.444V22.9328L222.284 22.9243Z" fill="#1D3E6F"/>
<path d="M228.663 5.98144V10.8532H233.104C233.861 10.8394 234.614 10.9679 235.324 11.2321C235.894 11.4463 236.413 11.7781 236.849 12.2065C237.24 12.5957 237.541 13.0668 237.732 13.5868C237.912 14.0901 238.002 14.6215 238 15.1566C238.005 15.6918 237.914 16.2236 237.732 16.7264C237.542 17.2545 237.241 17.7347 236.849 18.1338C236.405 18.571 235.877 18.9118 235.298 19.1352C234.587 19.3994 233.834 19.5279 233.077 19.5141H226.362V5.98144H228.663ZM232.997 17.403C233.853 17.403 234.522 17.2135 235.003 16.8076C235.233 16.602 235.415 16.3472 235.536 16.0615C235.656 15.7759 235.712 15.4668 235.699 15.1566C235.699 14.4529 235.458 13.9116 235.003 13.5326C234.549 13.1537 233.88 12.9643 233.024 12.9643H228.663V17.403H232.997Z" fill="#1D3E6F"/>
<path d="M0 31.0358V37.3575H1.39254V32.2749H4.1523V31.0358H0Z" fill="#1D3E6F"/>
<path d="M5.05042 40H6.44296V36.5104C6.62019 36.7633 6.88604 36.9909 7.25317 37.1805C7.62029 37.3828 8.02539 37.484 8.48113 37.484C8.91155 37.484 9.31665 37.3955 9.69644 37.2184C10.0636 37.0541 10.3927 36.8139 10.6586 36.5104C10.9244 36.2196 11.1396 35.8656 11.3042 35.4737C11.4561 35.0817 11.5321 34.6518 11.5321 34.1967C11.5321 33.7415 11.4561 33.3116 11.3042 32.9197C11.1396 32.5277 10.9244 32.1737 10.6586 31.8703C10.3927 31.5795 10.0636 31.3393 9.69644 31.1622C9.31665 30.9979 8.91155 30.9094 8.48113 30.9094C8.02539 30.9094 7.62029 31.0105 7.25317 31.2002C6.88604 31.4025 6.62019 31.63 6.44296 31.8829V31.0358H5.05042V40ZM8.22794 36.2196C7.94944 36.2196 7.69625 36.169 7.45572 36.0553C7.21519 35.9541 7.0253 35.815 6.86072 35.6254C6.69615 35.4484 6.5569 35.2334 6.46828 34.9932C6.37967 34.753 6.32903 34.4875 6.32903 34.1967C6.32903 33.9059 6.37967 33.6404 6.46828 33.4001C6.5569 33.1599 6.69615 32.945 6.86072 32.7553C7.0253 32.5783 7.21519 32.4392 7.45572 32.3254C7.69625 32.2243 7.94944 32.1737 8.22794 32.1737C8.50645 32.1737 8.75964 32.2243 9.00017 32.3254C9.22804 32.4392 9.43059 32.5783 9.59516 32.7553C9.75974 32.945 9.88633 33.1599 9.97495 33.4001C10.0636 33.6404 10.1142 33.9059 10.1142 34.1967C10.1142 34.4875 10.0636 34.753 9.97495 34.9932C9.88633 35.2334 9.75974 35.4484 9.59516 35.6254C9.43059 35.815 9.22804 35.9541 9.00017 36.0553C8.75964 36.169 8.50645 36.2196 8.22794 36.2196Z" fill="#1D3E6F"/>
<path d="M15.2922 37.484C15.7479 37.484 16.153 37.3828 16.5202 37.1805C16.8746 36.9909 17.1405 36.7633 17.3177 36.5104V37.3575H18.7103V31.0358H17.3177V31.8829C17.1405 31.63 16.8746 31.4025 16.5202 31.2002C16.153 31.0105 15.7479 30.9094 15.2922 30.9094C14.8618 30.9094 14.4567 30.9979 14.0896 31.1622C13.7098 31.3393 13.3806 31.5795 13.1148 31.8703C12.8489 32.1737 12.6337 32.5277 12.4818 32.9197C12.3172 33.3116 12.2413 33.7415 12.2413 34.1967C12.2413 34.6518 12.3172 35.0817 12.4818 35.4737C12.6337 35.8656 12.8489 36.2196 13.1148 36.5104C13.3806 36.8139 13.7098 37.0541 14.0896 37.2184C14.4567 37.3955 14.8618 37.484 15.2922 37.484ZM15.5454 36.2196C15.2669 36.2196 15.0137 36.169 14.7858 36.0553C14.5453 35.9541 14.3554 35.815 14.1908 35.6254C14.0263 35.4484 13.887 35.2334 13.7984 34.9932C13.7098 34.753 13.6591 34.4875 13.6591 34.1967C13.6591 33.9059 13.7098 33.6404 13.7984 33.4001C13.887 33.1599 14.0263 32.945 14.1908 32.7553C14.3554 32.5783 14.5453 32.4392 14.7858 32.3254C15.0137 32.2243 15.2669 32.1737 15.5454 32.1737C15.8239 32.1737 16.0771 32.2243 16.3176 32.3254C16.5455 32.4392 16.748 32.5783 16.9126 32.7553C17.0772 32.945 17.2038 33.1599 17.2924 33.4001C17.381 33.6404 17.4317 33.9059 17.4317 34.1967C17.4317 34.4875 17.381 34.753 17.2924 34.9932C17.2038 35.2334 17.0772 35.4484 16.9126 35.6254C16.748 35.815 16.5455 35.9541 16.3176 36.0553C16.0771 36.169 15.8239 36.2196 15.5454 36.2196Z" fill="#1D3E6F"/>
<path d="M20.3436 31.0358V37.3575H21.7362V34.7783H24.7871V37.3575H26.1796V31.0358H24.7871V33.5392H21.7362V31.0358H20.3436Z" fill="#1D3E6F"/>
<path d="M28.9821 32.2749V37.3575H30.3746V32.2749H32.3622V31.0358H27.0832V32.2749H28.9821Z" fill="#1D3E6F"/>
<path d="M36.1366 37.484C36.605 37.484 37.0354 37.3955 37.4405 37.2311C37.8456 37.0667 38.2001 36.8265 38.5039 36.5231C38.7951 36.2323 39.0356 35.8782 39.2001 35.4737C39.3647 35.0817 39.4533 34.6518 39.4533 34.1967C39.4533 33.7415 39.3647 33.3116 39.2001 32.907C39.0356 32.5151 38.7951 32.1611 38.5039 31.8576C38.2001 31.5668 37.8456 31.3266 37.4405 31.1622C37.0354 30.9979 36.605 30.9094 36.1366 30.9094C35.6682 30.9094 35.2251 30.9979 34.8326 31.1622C34.4275 31.3266 34.0731 31.5668 33.7819 31.8576C33.4781 32.1611 33.2376 32.5151 33.073 32.907C32.9084 33.3116 32.8198 33.7415 32.8198 34.1967C32.8198 34.6518 32.9084 35.0817 33.073 35.4737C33.2376 35.8782 33.4781 36.2323 33.7819 36.5231C34.0731 36.8265 34.4275 37.0667 34.8326 37.2311C35.2251 37.3955 35.6682 37.484 36.1366 37.484ZM36.1366 36.1943C35.8581 36.1943 35.6049 36.1438 35.3643 36.0426C35.1238 35.9415 34.9213 35.8024 34.7567 35.6127C34.5921 35.4357 34.4529 35.2208 34.3642 34.9806C34.2756 34.7403 34.225 34.4748 34.225 34.1967C34.225 33.9185 34.2756 33.653 34.3642 33.4128C34.4529 33.1725 34.5921 32.9576 34.7567 32.768C34.9213 32.591 35.1238 32.4519 35.3643 32.3507C35.6049 32.2496 35.8581 32.199 36.1366 32.199C36.4151 32.199 36.6683 32.2496 36.9088 32.3507C37.1367 32.4519 37.3392 32.591 37.5038 32.768C37.6684 32.9576 37.8076 33.1725 37.8962 33.4128C37.9848 33.653 38.0355 33.9185 38.0355 34.1967C38.0355 34.4748 37.9848 34.7403 37.8962 34.9806C37.8076 35.2208 37.6684 35.4357 37.5038 35.6127C37.3392 35.8024 37.1367 35.9415 36.9088 36.0426C36.6683 36.1438 36.4151 36.1943 36.1366 36.1943Z" fill="#1D3E6F"/>
<path d="M40.6007 31.0358V37.3575H43.8542C44.2719 37.3575 44.6137 37.3069 44.9049 37.1932C45.1961 37.092 45.4239 36.9529 45.6138 36.7759C45.8037 36.6116 45.9303 36.4093 46.0189 36.1817C46.1076 35.9667 46.1455 35.7265 46.1455 35.4863C46.1455 35.1702 46.0696 34.8921 45.905 34.6265C45.7404 34.361 45.5126 34.1587 45.2214 33.9944C45.5632 33.6783 45.7404 33.299 45.7404 32.8438C45.7404 32.6036 45.6898 32.3634 45.6012 32.1484C45.5126 31.9335 45.3733 31.7312 45.1834 31.5668C44.9935 31.4025 44.7657 31.276 44.4871 31.1749C44.196 31.0864 43.8668 31.0358 43.4871 31.0358H40.6007ZM43.8415 36.1817H41.9932V34.6013H43.8415C44.1074 34.6013 44.3352 34.6645 44.4998 34.8036C44.6644 34.9426 44.753 35.1323 44.753 35.3978C44.753 35.6507 44.6644 35.8403 44.4998 35.9794C44.3352 36.1185 44.1074 36.1817 43.8415 36.1817ZM43.5377 33.5898H41.9932V32.1611H43.5377C43.7276 32.1611 43.9175 32.2116 44.0947 32.3128C44.2593 32.4139 44.3479 32.6036 44.3479 32.8691C44.3479 33.1346 44.2593 33.3243 44.0947 33.4254C43.9175 33.5392 43.7276 33.5898 43.5377 33.5898Z" fill="#1D3E6F"/>
<path d="M49.9029 37.484C50.3587 37.484 50.7638 37.3828 51.1309 37.1805C51.4853 36.9909 51.7512 36.7633 51.9284 36.5104V37.3575H53.321V31.0358H51.9284V31.8829C51.7512 31.63 51.4853 31.4025 51.1309 31.2002C50.7638 31.0105 50.3587 30.9094 49.9029 30.9094C49.4725 30.9094 49.0674 30.9979 48.7003 31.1622C48.3205 31.3393 47.9913 31.5795 47.7255 31.8703C47.4596 32.1737 47.2444 32.5277 47.0925 32.9197C46.9279 33.3116 46.852 33.7415 46.852 34.1967C46.852 34.6518 46.9279 35.0817 47.0925 35.4737C47.2444 35.8656 47.4596 36.2196 47.7255 36.5104C47.9913 36.8139 48.3205 37.0541 48.7003 37.2184C49.0674 37.3955 49.4725 37.484 49.9029 37.484ZM50.1561 36.2196C49.8776 36.2196 49.6244 36.169 49.3965 36.0553C49.156 35.9541 48.9661 35.815 48.8015 35.6254C48.637 35.4484 48.4977 35.2334 48.4091 34.9932C48.3205 34.753 48.2698 34.4875 48.2698 34.1967C48.2698 33.9059 48.3205 33.6404 48.4091 33.4001C48.4977 33.1599 48.637 32.945 48.8015 32.7553C48.9661 32.5783 49.156 32.4392 49.3965 32.3254C49.6244 32.2243 49.8776 32.1737 50.1561 32.1737C50.4346 32.1737 50.6878 32.2243 50.9283 32.3254C51.1562 32.4392 51.3587 32.5783 51.5233 32.7553C51.6879 32.945 51.8145 33.1599 51.9031 33.4001C51.9917 33.6404 52.0424 33.9059 52.0424 34.1967C52.0424 34.4875 51.9917 34.753 51.9031 34.9932C51.8145 35.2334 51.6879 35.4484 51.5233 35.6254C51.3587 35.815 51.1562 35.9541 50.9283 36.0553C50.6878 36.169 50.4346 36.2196 50.1561 36.2196Z" fill="#1D3E6F"/>
<path d="M56.2962 34.93L53.9289 37.3575H55.5746L57.7141 35.1955H58.423V37.3575H59.8156V31.0358H57.2584C56.8786 31.0358 56.5494 31.0864 56.2583 31.1875C55.9671 31.3013 55.7266 31.4404 55.5367 31.6301C55.3468 31.8197 55.1949 32.0346 55.0936 32.2875C54.9923 32.5404 54.9417 32.8059 54.9417 33.0967C54.9417 33.5266 55.0556 33.9059 55.2961 34.222C55.5367 34.538 55.8658 34.7783 56.2962 34.93ZM58.423 34.0323H57.3343C57.0178 34.0323 56.7646 33.9564 56.5747 33.8047C56.3849 33.653 56.2836 33.4381 56.2836 33.1473C56.2836 32.8565 56.3722 32.6162 56.5494 32.4519C56.7267 32.2875 56.9925 32.2116 57.3343 32.2116H58.423V34.0323Z" fill="#1D3E6F"/>
<path d="M64.1651 31.0358V37.3575H65.5576V32.2749H68.4819V37.3575H69.8745V31.0358H64.1651Z" fill="#1D3E6F"/>
<path d="M71.4902 37.4587C71.7434 37.4587 71.9839 37.4207 72.2245 37.3322C72.4523 37.2437 72.6549 37.1173 72.8321 36.9276C72.9967 36.7506 73.136 36.5231 73.2372 36.2449C73.3385 35.9794 73.3891 35.6507 73.3891 35.2714V32.2749H75.7565V37.3575H77.149V31.0358H71.9966V35.0564C71.9966 35.5242 71.9333 35.8277 71.7941 35.992C71.6548 36.1564 71.4649 36.2323 71.2244 36.2323C71.1611 36.2323 71.0851 36.2323 71.0218 36.2196C70.9459 36.2196 70.8699 36.2196 70.8066 36.207V37.4081C70.9712 37.446 71.1991 37.4587 71.4902 37.4587Z" fill="#1D3E6F"/>
<path d="M81.627 37.484C82.0954 37.484 82.5258 37.3955 82.9309 37.2311C83.336 37.0667 83.6905 36.8265 83.9943 36.5231C84.2855 36.2323 84.526 35.8782 84.6906 35.4737C84.8551 35.0817 84.9438 34.6518 84.9438 34.1967C84.9438 33.7415 84.8551 33.3116 84.6906 32.907C84.526 32.5151 84.2855 32.1611 83.9943 31.8576C83.6905 31.5668 83.336 31.3266 82.9309 31.1622C82.5258 30.9979 82.0954 30.9094 81.627 30.9094C81.1586 30.9094 80.7155 30.9979 80.3231 31.1622C79.918 31.3266 79.5635 31.5668 79.2723 31.8576C78.9685 32.1611 78.728 32.5151 78.5634 32.907C78.3988 33.3116 78.3102 33.7415 78.3102 34.1967C78.3102 34.6518 78.3988 35.0817 78.5634 35.4737C78.728 35.8782 78.9685 36.2323 79.2723 36.5231C79.5635 36.8265 79.918 37.0667 80.3231 37.2311C80.7155 37.3955 81.1586 37.484 81.627 37.484ZM81.627 36.1943C81.3485 36.1943 81.0953 36.1438 80.8548 36.0426C80.6142 35.9415 80.4117 35.8024 80.2471 35.6127C80.0825 35.4357 79.9433 35.2208 79.8547 34.9806C79.766 34.7403 79.7154 34.4748 79.7154 34.1967C79.7154 33.9185 79.766 33.653 79.8547 33.4128C79.9433 33.1725 80.0825 32.9576 80.2471 32.768C80.4117 32.591 80.6142 32.4519 80.8548 32.3507C81.0953 32.2496 81.3485 32.199 81.627 32.199C81.9055 32.199 82.1587 32.2496 82.3992 32.3507C82.6271 32.4519 82.8296 32.591 82.9942 32.768C83.1588 32.9576 83.298 33.1725 83.3866 33.4128C83.4753 33.653 83.5259 33.9185 83.5259 34.1967C83.5259 34.4748 83.4753 34.7403 83.3866 34.9806C83.298 35.2208 83.1588 35.4357 82.9942 35.6127C82.8296 35.8024 82.6271 35.9415 82.3992 36.0426C82.1587 36.1438 81.9055 36.1943 81.627 36.1943Z" fill="#1D3E6F"/>
<path d="M95.6743 38.938V36.1185H94.6615V31.0358H93.269V36.1185H91.0789V31.0358H89.6864V36.1185H87.4837V31.0358H86.0911V37.3575H94.3957V38.938H95.6743Z" fill="#1D3E6F"/>
<path d="M99.3618 37.484C99.8175 37.484 100.223 37.3828 100.59 37.1805C100.944 36.9909 101.21 36.7633 101.387 36.5104V37.3575H102.78V31.0358H101.387V31.8829C101.21 31.63 100.944 31.4025 100.59 31.2002C100.223 31.0105 99.8175 30.9094 99.3618 30.9094C98.9313 30.9094 98.5262 30.9979 98.1591 31.1622C97.7793 31.3393 97.4502 31.5795 97.1843 31.8703C96.9185 32.1737 96.7033 32.5277 96.5514 32.9197C96.3868 33.3116 96.3108 33.7415 96.3108 34.1967C96.3108 34.6518 96.3868 35.0817 96.5514 35.4737C96.7033 35.8656 96.9185 36.2196 97.1843 36.5104C97.4502 36.8139 97.7793 37.0541 98.1591 37.2184C98.5262 37.3955 98.9313 37.484 99.3618 37.484ZM99.615 36.2196C99.3364 36.2196 99.0833 36.169 98.8554 36.0553C98.6149 35.9541 98.425 35.815 98.2604 35.6254C98.0958 35.4484 97.9566 35.2334 97.8679 34.9932C97.7793 34.753 97.7287 34.4875 97.7287 34.1967C97.7287 33.9059 97.7793 33.6404 97.8679 33.4001C97.9566 33.1599 98.0958 32.945 98.2604 32.7553C98.425 32.5783 98.6149 32.4392 98.8554 32.3254C99.0833 32.2243 99.3364 32.1737 99.615 32.1737C99.8935 32.1737 100.147 32.2243 100.387 32.3254C100.615 32.4392 100.818 32.5783 100.982 32.7553C101.147 32.945 101.273 33.1599 101.362 33.4001C101.451 33.6404 101.501 33.9059 101.501 34.1967C101.501 34.4875 101.451 34.753 101.362 34.9932C101.273 35.2334 101.147 35.4484 100.982 35.6254C100.818 35.815 100.615 35.9541 100.387 36.0553C100.147 36.169 99.8935 36.2196 99.615 36.2196Z" fill="#1D3E6F"/>
<path d="M104.033 36.1185H103.869V38.938H105.147V37.3575H109.869V38.938H111.135V36.1185H110.148V31.0358H104.932V34.2599C104.932 34.6265 104.907 34.93 104.869 35.1702C104.818 35.4104 104.755 35.6001 104.666 35.7392C104.578 35.8782 104.489 35.9794 104.388 36.03C104.274 36.0932 104.16 36.1185 104.033 36.1185ZM106.325 34.399V32.2749H108.755V36.1185H105.958C106.021 36.03 106.072 35.9288 106.11 35.815C106.148 35.7139 106.185 35.6001 106.223 35.461C106.261 35.3219 106.287 35.1702 106.299 34.9932C106.312 34.8288 106.325 34.6265 106.325 34.399Z" fill="#1D3E6F"/>
<path d="M113.625 34.6645L116.436 37.3575H118.271L114.942 34.1461L117.816 31.0358H116.119L113.625 33.7415V31.0358H112.233V37.3575H113.625V34.6645Z" fill="#1D3E6F"/>
<path d="M121.374 37.484C121.83 37.484 122.235 37.3828 122.602 37.1805C122.957 36.9909 123.223 36.7633 123.4 36.5104V37.3575H124.792V31.0358H123.4V31.8829C123.223 31.63 122.957 31.4025 122.602 31.2002C122.235 31.0105 121.83 30.9094 121.374 30.9094C120.944 30.9094 120.539 30.9979 120.172 31.1622C119.792 31.3393 119.463 31.5795 119.197 31.8703C118.931 32.1737 118.716 32.5277 118.564 32.9197C118.399 33.3116 118.323 33.7415 118.323 34.1967C118.323 34.6518 118.399 35.0817 118.564 35.4737C118.716 35.8656 118.931 36.2196 119.197 36.5104C119.463 36.8139 119.792 37.0541 120.172 37.2184C120.539 37.3955 120.944 37.484 121.374 37.484ZM121.628 36.2196C121.349 36.2196 121.096 36.169 120.868 36.0553C120.627 35.9541 120.438 35.815 120.273 35.6254C120.108 35.4484 119.969 35.2334 119.881 34.9932C119.792 34.753 119.741 34.4875 119.741 34.1967C119.741 33.9059 119.792 33.6404 119.881 33.4001C119.969 33.1599 120.108 32.945 120.273 32.7553C120.438 32.5783 120.627 32.4392 120.868 32.3254C121.096 32.2243 121.349 32.1737 121.628 32.1737C121.906 32.1737 122.159 32.2243 122.4 32.3254C122.628 32.4392 122.83 32.5783 122.995 32.7553C123.159 32.945 123.286 33.1599 123.375 33.4001C123.463 33.6404 123.514 33.9059 123.514 34.1967C123.514 34.4875 123.463 34.753 123.375 34.9932C123.286 35.2334 123.159 35.4484 122.995 35.6254C122.83 35.815 122.628 35.9541 122.4 36.0553C122.159 36.169 121.906 36.2196 121.628 36.2196Z" fill="#1D3E6F"/>
</svg>
