<svg width="239" height="23" viewBox="0 0 239 23" fill="none" xmlns="http://www.w3.org/2000/svg">
<path d="M10.4983 1.14857L18.8159 19.573H16.2114L13.699 13.9541H5.11348L2.60112 19.573H0L8.3159 1.14857H10.4983ZM12.6757 11.6671L9.40794 4.372L6.13517 11.6671H12.6757Z" fill="#1D3E6F"/>
<path d="M22.9082 19.2727C22.0689 18.9206 21.318 18.3827 20.7108 17.6983C20.0831 17.0017 19.6082 16.1783 19.3172 15.2824C18.9861 14.2763 18.8231 13.2213 18.8349 12.1608V10.7764C18.8349 8.69816 18.8901 7.44951 19.1581 6.19576C19.3943 5.08453 19.679 4.19893 20.2954 3.3303C20.8632 2.52853 21.6151 1.87873 22.4862 1.43697C24.496 0.354577 27.5779 0.191709 29.2159 0.0797376L31.2074 0V2.24283H30.9059C28.9295 2.24283 23.8713 2.42266 22.3857 4.25153C21.979 4.71615 21.6874 5.27208 21.5348 5.87342C21.3236 6.68654 21.2001 7.52046 21.1663 8.36055C21.7318 7.5509 22.5124 6.92028 23.4174 6.54186C24.2671 6.18518 25.1775 6.00074 26.0972 5.99896C27.0616 5.98764 28.0184 6.17224 28.9111 6.54186C29.7056 6.86921 30.4192 7.36965 31.0014 8.00767C31.5728 8.63418 32.0268 9.36084 32.3413 10.1521C32.6418 10.9778 32.796 11.8508 32.7969 12.7308C32.8089 13.6781 32.6382 14.6186 32.2944 15.4996C31.9662 16.3414 31.474 17.1076 30.8473 17.7526C30.2209 18.4153 29.4628 18.9357 28.623 19.2795C26.7943 20.0395 24.7436 20.0395 22.9149 19.2795L22.9082 19.2727ZM27.6516 17.2911C28.2061 17.0631 28.7079 16.7211 29.1255 16.2868C29.5442 15.8299 29.8718 15.2953 30.0902 14.7124C30.3361 14.082 30.4568 13.4086 30.4453 12.7308C30.4558 12.0912 30.3372 11.4562 30.0969 10.8646C29.8806 10.3193 29.562 9.82157 29.159 9.39883C28.7317 8.99013 28.2315 8.66769 27.6851 8.44877C27.0957 8.22728 26.4713 8.11688 25.8427 8.12303C25.1914 8.10909 24.5441 8.22914 23.94 8.47591C23.3921 8.70442 22.892 9.03601 22.466 9.45312C22.0542 9.86872 21.7344 10.3684 21.5281 10.9189C21.2895 11.4944 21.1709 12.1136 21.1797 12.7376C21.1638 13.415 21.2799 14.089 21.5214 14.7209C21.7136 15.3028 22.029 15.8351 22.4456 16.2806C22.8622 16.726 23.37 17.0738 23.9333 17.2996C24.5155 17.552 25.1424 17.6813 25.7757 17.6796C26.4227 17.6804 27.0631 17.5483 27.6583 17.2911H27.6516Z" fill="#1D3E6F"/>
<path d="M38.2917 19.2727C37.4599 18.9285 36.7106 18.4079 36.0942 17.7458C35.4737 17.1061 34.9822 16.3501 34.6471 15.52C33.9324 13.7639 33.9324 11.7928 34.6471 10.0367C34.9883 9.20185 35.4789 8.43802 36.0942 7.78373C36.725 7.1389 37.4706 6.62083 38.2917 6.25684C39.1858 5.89226 40.1416 5.70785 41.1055 5.71395C41.9152 5.71439 42.7199 5.8426 43.4906 6.09398C44.1998 6.333 44.8686 6.68089 45.4737 7.12547C46.0622 7.56884 46.5719 8.11042 46.9811 8.72701C47.3834 9.35225 47.6822 10.0399 47.8654 10.7629H45.3932C45.1019 9.90475 44.548 9.16308 43.8121 8.64557C43.0097 8.11101 42.0657 7.83645 41.1055 7.85838C40.4524 7.85313 39.8051 7.98243 39.2028 8.2384C38.6468 8.47617 38.1451 8.82728 37.7289 9.2699C37.3207 9.72981 37.0024 10.2641 36.7909 10.8443C36.3264 12.0861 36.3264 13.4571 36.7909 14.6988C36.9963 15.2739 37.3155 15.8004 37.7289 16.2461C38.1366 16.7053 38.6401 17.0669 39.2028 17.3047C39.8051 17.5607 40.4524 17.69 41.1055 17.6847C42.0701 17.7107 43.0179 17.4255 43.8121 16.8704C44.5524 16.3694 45.1083 15.6346 45.3932 14.7803H47.8671C47.6838 15.5032 47.3851 16.1909 46.9827 16.8161C46.5802 17.4304 46.0691 17.9641 45.4753 18.3905C44.8788 18.8618 44.2077 19.2272 43.4906 19.4712C42.7199 19.7226 41.9152 19.8508 41.1055 19.8512C40.138 19.859 39.1796 19.662 38.2917 19.2727Z" fill="#1D3E6F"/>
<path d="M53.1459 19.2727C52.3136 18.9357 51.5584 18.4294 50.927 17.7851C50.2955 17.1408 49.8012 16.3722 49.4745 15.5267C49.1172 14.6582 48.935 13.726 48.9386 12.7851C48.9376 11.8357 49.1197 10.8952 49.4745 10.0164C49.8096 9.18626 50.3012 8.43022 50.9216 7.79049C51.5623 7.14517 52.3168 6.62726 53.1459 6.26361C54.9445 5.53973 56.9482 5.53973 58.7468 6.26361C59.5759 6.62726 60.3304 7.14517 60.9711 7.79049C61.5998 8.42898 62.1003 9.18488 62.445 10.0164C62.7888 10.8973 62.9595 11.8379 62.9475 12.7851C62.962 13.7238 62.7912 14.6559 62.445 15.5267C62.1079 16.3698 61.6072 17.1357 60.9725 17.7792C60.3379 18.4226 59.5822 18.9305 58.7502 19.2727C57.8632 19.649 56.9113 19.8427 55.9497 19.8427C54.9881 19.8427 54.0362 19.649 53.1493 19.2727H53.1459ZM57.8625 17.2911C58.4252 17.0533 58.9286 16.6917 59.3364 16.2325C59.7406 15.7798 60.0586 15.2552 60.2743 14.6852C60.4938 14.0767 60.6027 13.433 60.5959 12.7851C60.6004 12.1375 60.4915 11.4941 60.2743 10.885C60.0525 10.3099 59.7353 9.77741 59.3364 9.31059C58.9201 8.86798 58.4184 8.51687 57.8625 8.2791C56.6449 7.77177 55.2793 7.76995 54.0604 8.27401C53.5045 8.51178 53.0027 8.86289 52.5865 9.3055C51.7565 10.2677 51.2995 11.5023 51.3002 12.78C51.2888 13.4307 51.4073 14.077 51.6486 14.6801C51.8539 15.2552 52.1731 15.7817 52.5865 16.2274C52.9942 16.6866 53.4977 17.0482 54.0604 17.286C55.2796 17.7927 56.6466 17.7927 57.8658 17.286L57.8625 17.2911Z" fill="#1D3E6F"/>
<path d="M63.7461 19.7341C63.5661 19.7338 63.3866 19.7156 63.2101 19.6798V17.5897C63.3511 17.6211 63.4946 17.6393 63.6389 17.644H64.0677C64.299 17.6534 64.5292 17.6065 64.739 17.5073C64.9488 17.4082 65.1321 17.2596 65.2736 17.074C65.5684 16.7211 65.7024 16.0153 65.7024 14.9838V5.99215H76.0466V19.5645H73.7419V8.14337H68.007V15.4724C68.007 16.9111 67.6587 17.9969 66.9887 18.6958C66.654 19.0409 66.253 19.3128 65.8105 19.4949C65.3681 19.677 64.8935 19.7653 64.416 19.7545C64.1925 19.7618 63.9688 19.755 63.7461 19.7341Z" fill="#1D3E6F"/>
<path d="M88.1757 19.3813C87.4215 19.0976 86.7361 18.6532 86.1659 18.0783C85.5678 17.5299 85.0848 16.8653 84.7455 16.1239C84.3643 15.3668 84.1193 14.547 84.022 13.7029H81.4493V19.5662H79.1447V5.99386H81.4493V11.6128H84.0421C84.1657 10.79 84.419 9.99261 84.7924 9.25122C85.1611 8.55975 85.6437 7.9372 86.2195 7.41047C86.8064 6.87058 87.4882 6.44703 88.2293 6.16182C89.0078 5.86243 89.8354 5.71562 90.668 5.7292C91.5977 5.72305 92.519 5.90773 93.3763 6.27209C94.1809 6.62206 94.9095 7.1294 95.5202 7.76505C96.11 8.42864 96.5815 9.19098 96.9137 10.0181C97.2383 10.9039 97.4018 11.8419 97.3961 12.7868C97.4042 13.723 97.2406 14.6527 96.9137 15.5284C96.5936 16.3597 96.1207 17.1219 95.5202 17.7746C94.9185 18.4295 94.1882 18.9495 93.3763 19.3015C92.519 19.6659 91.5977 19.8506 90.668 19.8444C89.8163 19.8455 88.9716 19.6885 88.1757 19.3813ZM92.4384 17.2657C92.9656 17.0193 93.4388 16.6686 93.8302 16.2342C94.2187 15.7792 94.5192 15.2544 94.7162 14.6869C94.9357 14.0784 95.0447 13.4346 95.0378 12.7868C95.0423 12.1303 94.9335 11.4781 94.7162 10.8595C94.5136 10.3009 94.2135 9.78374 93.8302 9.33265C93.4388 8.89827 92.9656 8.54756 92.4384 8.30116C91.8808 8.05508 91.2798 7.92582 90.6716 7.92115C90.0634 7.91649 89.4605 8.03651 88.8993 8.27401C88.3755 8.51369 87.9092 8.86561 87.5326 9.3055C87.1452 9.76097 86.8453 10.2857 86.6482 10.8528C86.431 11.4713 86.3222 12.1235 86.3267 12.78C86.3198 13.4279 86.4288 14.0716 86.6482 14.6801C86.8453 15.2472 87.1452 15.7719 87.5326 16.2274C87.9085 16.6697 88.3748 17.024 88.8993 17.2657C89.4563 17.5166 90.0592 17.6463 90.6688 17.6463C91.2785 17.6463 91.8813 17.5166 92.4384 17.2657Z" fill="#1D3E6F"/>
<path d="M97.7103 8.14341V5.99898H109.729V8.14341H104.778V19.5713H102.469V8.14341H97.7103Z" fill="#1D3E6F"/>
<path d="M133.766 11.4975V13.8336H110.518V11.4975H133.766Z" fill="#1D3E6F"/>
<path d="M139.611 3.53561V19.5713H137.199V1.14857H151.985V19.573H149.547V3.53561H139.611Z" fill="#1D3E6F"/>
<path d="M158.49 19.2727C157.658 18.9357 156.902 18.4294 156.271 17.7851C155.639 17.1408 155.145 16.3722 154.819 15.5267C154.461 14.6582 154.279 13.726 154.283 12.7851C154.282 11.8357 154.464 10.8952 154.819 10.0164C155.154 9.18626 155.645 8.43022 156.266 7.79049C156.906 7.14517 157.661 6.62726 158.49 6.26361C160.288 5.53973 162.292 5.53973 164.091 6.26361C164.92 6.62726 165.674 7.14517 166.315 7.79049C166.944 8.42898 167.444 9.18488 167.789 10.0164C168.133 10.8973 168.303 11.8379 168.291 12.7851C168.306 13.7238 168.135 14.6559 167.789 15.5267C167.452 16.3696 166.952 17.1355 166.317 17.7789C165.683 18.4224 164.928 18.9303 164.096 19.2727C163.209 19.649 162.257 19.8427 161.295 19.8427C160.334 19.8427 159.382 19.649 158.495 19.2727H158.49ZM163.206 17.2911C163.769 17.0533 164.273 16.6917 164.68 16.2325C165.085 15.7798 165.403 15.2552 165.618 14.6852C165.838 14.0767 165.947 13.433 165.94 12.7851C165.944 12.1375 165.835 11.4941 165.618 10.885C165.396 10.3099 165.079 9.77741 164.68 9.31059C164.264 8.86798 163.762 8.51687 163.206 8.2791C161.987 7.77248 160.62 7.77248 159.401 8.2791C158.845 8.51687 158.343 8.86798 157.927 9.31059C157.097 10.2728 156.64 11.5074 156.641 12.7851C156.629 13.4358 156.748 14.0821 156.989 14.6852C157.195 15.2603 157.514 15.7868 157.927 16.2325C158.335 16.6917 158.838 17.0533 159.401 17.2911C160.62 17.7977 161.987 17.7977 163.206 17.2911Z" fill="#1D3E6F"/>
<path d="M178.583 16.3716L183.891 5.99898H186.68V19.5713H184.372V9.71949L179.394 19.4067H177.766L172.795 9.73645V19.5764H170.49V6.00407H173.274L178.583 16.3716Z" fill="#1D3E6F"/>
<path d="M193.078 19.2727C192.246 18.9357 191.491 18.4294 190.859 17.7851C190.228 17.1408 189.733 16.3722 189.407 15.5267C189.049 14.6582 188.867 13.726 188.871 12.7851C188.87 11.8357 189.052 10.8952 189.407 10.0164C189.742 9.18626 190.233 8.43022 190.854 7.79049C191.494 7.14517 192.249 6.62726 193.078 6.26361C194.877 5.53973 196.88 5.53973 198.679 6.26361C199.508 6.62726 200.263 7.14517 200.903 7.79049C201.532 8.42898 202.033 9.18488 202.377 10.0164C202.721 10.8973 202.892 11.8379 202.88 12.7851C202.894 13.7238 202.723 14.6559 202.377 15.5267C202.04 16.3701 201.538 17.1362 200.903 17.7797C200.268 18.4232 199.512 18.9309 198.679 19.2727C197.792 19.649 196.84 19.8427 195.879 19.8427C194.917 19.8427 193.965 19.649 193.078 19.2727ZM197.795 17.2911C198.357 17.0533 198.861 16.6917 199.269 16.2325C199.673 15.7798 199.991 15.2552 200.206 14.6852C200.426 14.0767 200.535 13.433 200.528 12.7851C200.533 12.1375 200.424 11.4941 200.206 10.885C199.985 10.3099 199.667 9.77741 199.269 9.31059C198.852 8.86798 198.351 8.51687 197.795 8.2791C196.575 7.77248 195.208 7.77248 193.989 8.2791C193.433 8.51687 192.932 8.86798 192.515 9.31059C191.685 10.2728 191.228 11.5074 191.229 12.7851C191.218 13.4358 191.336 14.0821 191.577 14.6852C191.783 15.2603 192.102 15.7868 192.515 16.2325C192.923 16.6917 193.426 17.0533 193.989 17.2911C195.208 17.7977 196.575 17.7977 197.795 17.2911Z" fill="#1D3E6F"/>
<path d="M222.654 22.9915V19.5713H205.014V5.99898H207.312V17.4354H212.645V5.99898H214.949V17.4354H220.282V5.99898H222.587V17.4354H224.818V23L222.654 22.9915Z" fill="#1D3E6F"/>
<path d="M229.043 5.99898V10.885H233.492C234.25 10.8712 235.004 11.0001 235.716 11.265C236.287 11.4798 236.807 11.8126 237.243 12.2422C237.635 12.6326 237.937 13.1052 238.128 13.6266C238.307 14.1315 238.398 14.6644 238.396 15.201C238.4 15.7379 238.31 16.2712 238.128 16.7754C237.937 17.3051 237.635 17.7867 237.243 18.1869C236.798 18.6255 236.269 18.9672 235.689 19.1913C234.977 19.4563 234.223 19.5851 233.465 19.5713H226.738V5.99898H229.043ZM233.384 17.454C234.242 17.454 234.912 17.264 235.394 16.8568C235.625 16.6507 235.807 16.3951 235.927 16.1086C236.048 15.8222 236.104 15.5121 236.091 15.201C236.091 14.4953 235.85 13.9524 235.394 13.5723C234.939 13.1923 234.269 13.0023 233.411 13.0023H229.043V17.454H233.384Z" fill="#1D3E6F"/>
</svg>
